<?xml version="1.0" encoding="UTF-8" standalone="no"?>
<!-- Created with Inkscape (http://www.inkscape.org/) -->

<svg
   width="407.6297mm"
   height="251.39133mm"
   viewBox="0 0 407.6297 251.39133"
   version="1.1"
   id="svg1"
   xml:space="preserve"
   xmlns:inkscape="http://www.inkscape.org/namespaces/inkscape"
   xmlns:sodipodi="http://sodipodi.sourceforge.net/DTD/sodipodi-0.dtd"
   xmlns="http://www.w3.org/2000/svg"
   xmlns:svg="http://www.w3.org/2000/svg"><sodipodi:namedview
     id="namedview1"
     pagecolor="#ffffff"
     bordercolor="#000000"
     borderopacity="0.25"
     inkscape:showpageshadow="2"
     inkscape:pageopacity="0.0"
     inkscape:pagecheckerboard="0"
     inkscape:deskcolor="#d1d1d1"
     inkscape:document-units="mm" /><defs
     id="defs1"><style
       id="style1">
      .cls-1, .cls-2 {
        fill-rule: evenodd;
      }

      .cls-2 {
        fill: #000018;
      }
    </style></defs><g
     inkscape:label="Layer 1"
     inkscape:groupmode="layer"
     id="layer1"
     transform="translate(42.673333,8.1305702)"><g
       id="g1"
       transform="matrix(0.26458333,0,0,0.26458333,-42.673331,-10.31988)"><path
         id="Negativ"
         class="cls-1"
         d="m 1502.401,388.822 c -2.83,-11.436 -9.03,-22.325 -13.55,-32.6 a 521.4,521.4 0 0 0 -51.1,-91.036 c -73.72,-104.622 -172.75,-186.075001 -308.16,-228.821001 -32.29,-10.192 -66.32,-15.742 -103.13,-22.454 -23.44,-2.1 -23.85,-2.427 -58.42,-5.5839997 572.33,-0.032 0.23,-0.1 572.48,0 0.01,125.5140007 0.28,253.5000007 0,378.8000007 -12.21,0.828 -25.91,0.875 -38.12,1.695 z m -411.91,212.52 v 72.583 q -8.925,8.917 -17.85,17.838 -5.085,19.067 -10.16,38.136 h -103.13 c -0.3,-19.69 4.57,-35.86 10.47,-49.516 18.26,-42.272 60.88,-78.613 120.67,-79.041 z m -136.37,-4.305 124.98,0.306 c -15.93,-0.218 -30.91,5.757 -42.48,10.765 -32.73,14.17 -57.65,37.737 -71.73,70.43 -3.65,8.474 -6.13,17.885 -8.31,27.68 q -0.93,7.072 -1.85,14.147 -0.3,-61.654 -0.61,-123.328 z m 0.92,150.393 c -0.47,27.732 8.14,53.176 16.62,73.2 24.21,57.14 65.13,99.16 122.84,122.715 13.5,5.513 28.3,9.079 44.02,12.3 q 12.615,1.395 25.24,2.77 h -208.72 z m 360.18,182.994 c 95.55,-40.625 163.11,-110.654 201.65,-208.213 8.69,-22 13.61,-46.024 18.78,-71.66 q 1.68,-15.223 3.38,-30.448 c 0.21,-3.691 1.28,-8.139 1.49,-11.829 v 350.137 c -116.67,-0.1 -234.23,-0.2 -350.9,-0.31 45.73,0.9 93.2,-13.899 125.6,-27.677 z m -225.03,-181.148 q -10.17,-3.844 -20.32,-7.69 -5.385,1.539 -10.78,3.076 1.23,20.6 2.46,41.212 7.08,12.455 14.17,24.912 l 26.78,-1.538 q -4.47,-22.294 -8.93,-44.6 c -0.97,-4.144 -0.69,-12.652 -3.38,-15.372 z m 64.34,-69.2 q -29.55,34.136 -59.11,68.277 5.535,28.446 11.08,56.9 c 4.1,-1.421 18.5,-24.4 22.47,-29.217 q 9.705,-5.383 19.4,-10.765 11.7,-11.685 23.4,-23.374 -6.315,-22.911 -12.63,-45.825 c -1.26,-4.189 -1.61,-13.305 -4.61,-15.996 z m -19.09,-398.9 q 5.235,24.448 10.47,48.9 36.93,9.226 73.88,18.454 -7.08,-16.145 -14.16,-32.294 c -3.5,-8.015 -5.91,-17.811 -10.47,-24.911 z m 218.27,85.193 q -76.035,-36.288 -152.08,-72.583 12,28.139 24.01,56.283 l 136.69,60.895 q -3.24,-16.607 -6.47,-33.216 c -0.77,-3.601 0.1,-9.237 -2.15,-11.377 z m -141,43.365 144.07,48.593 q 3.09,-20.91 6.16,-41.827 l -136.99,-61.2 q -6.61,27.211 -13.24,54.436 z m 262.9,19.376 q -21.39,-18.144 -42.79,-36.291 -36.63,-12.149 -73.26,-24.3 4.155,22.3 8.31,44.6 l 107.74,16.3 v -0.308 z m 5.55,5.843 -113.29,-17.222 c -0.11,0.1 -0.21,0.2 -0.31,0.307 q -2.925,20.449 -5.85,40.9 l 19.09,-1.846 c 12.04,-1.978 38.12,-2.968 51.41,-0.922 l 52.02,0.307 c 0.1,-3.706 -1.51,-20.355 -3.07,-21.522 z m 5.54,59.051 -2.16,-32.6 -94.51,-0.615 -28.32,3.075 q 8.925,31.983 17.86,63.971 h 0.92 q 53.1,-13.683 106.21,-27.372 v -6.452 z m 0,10.764 -104.98,27.065 15.39,33.216 q 45.87,-18.606 91.74,-37.215 -1.08,-11.53 -2.15,-23.064 z m -2.77,93.189 c -0.02,-17.253 23.03,-52.052 5.85,-65.816 q -45.255,18.6 -90.51,37.214 2.61,23.985 5.23,47.977 39.705,-9.683 79.43,-19.373 z m -204.42,72.584 h 0.31 q 11.385,-3.535 22.78,-7.074 16.47,-4.918 32.94,-9.841 17.85,-9.84 35.71,-19.684 14.325,-7.687 28.63,-15.377 -1.995,-16.914 -4,-33.831 c -0.84,-5.22 0.2,-9.988 -1.85,-13.532 h -0.92 l -65.88,15.685 -72.04,28.6 c 0.88,2.5 15.04,10.636 18.17,11.686 0.01,10.336 3.09,19.635 4.92,28.911 q 0.615,7.227 1.23,14.457 z m -50.79,23.682 q 22.77,-10.764 45.56,-21.528 a 135.519,135.519 0 0 0 -5.85,-43.058 q -9.855,-5.535 -19.7,-11.072 -18.015,13.069 -36.02,26.142 8.01,24.756 16.01,49.516 z m -69.88,-90.112 -0.93,13.84 q 26.175,11.532 52.34,23.066 17.385,-12.762 34.78,-25.526 h -0.61 q -26.775,-15.07 -53.57,-30.141 z m 35.71,-22.144 q 19.545,10.763 39.09,21.529 c 4.64,2.751 9.41,8.313 15.4,9.226 3.55,0.542 8.61,-3.16 11.39,-4.3 q 14.61,-5.844 29.24,-11.687 18.48,-7.227 36.95,-14.456 l 66.18,-15.377 c -0.84,-4.19 -14.02,-30.943 -16.62,-33.523 h -2.16 q -20.775,2.768 -41.56,5.536 l -89.58,14.455 c -10.28,2.034 -33.58,2.717 -40.94,7.073 q -3.7,10.758 -7.39,21.523 z m 6.77,-27.065 97.9,-15.991 c 25.08,-4.661 52.53,-3.152 75.73,-10.15 v -0.307 q -9.24,-32.6 -18.47,-65.2 -73.425,-24.909 -146.85,-49.823 l -80.35,68.276 q 36.015,36.591 72.04,73.194 z M 927.182,350.278 c -10.671,-2.768 -28.275,-7.7 -38.946,-10.47 l -69.883,24.3 c -0.307,2.461 -1.633,0.094 -1.94,2.555 m -121.027,-43 c 1.539,2.87 4.136,8.665 5.676,11.535 9.951,17.017 19.264,13.17 41.56,16.608 l 36.019,3.383 55.105,-10.457 c 7.656,-1.654 35.785,-4.11 40.021,-7.381 L 801.73,327.202 c -9.277,-2.37 -9.476,-3.418 -28.395,-9.682 m 0,0 c -12.776,-5.061 -18.808,-7.372 -31.021,-10.617 -12.492,0.946 -27.682,-1.148 -37.249,3.076 -2.98,1.315 -9.629,5.662 -9.679,13.684 m 102.565,315.325 c 0.409,-4.1 1.214,-8.625 1.623,-12.726 l -8.927,-13.84 -34.787,-9.227 -42.484,-12.3 -101.9,-7.073 c 4.338,6.43 16.706,9.481 24.32,12.609 9.338,4.511 29.738,13.478 39.076,17.988 M 574.36,557.084 c 6.259,4.716 15.158,11.256 21.417,15.971 l 50.18,-9.534 c 8.108,-1.764 15.707,-1.259 16.609,-10.532 m 45.885,83.114 q -28.165,-13.221 -56.337,-26.449 -19.7,-9.38 -39.4,-18.761 l -44.331,48.594 141,64.586 35.1,-31.985 c -5.36,-7.312 -13.263,-14.626 -20.318,-20.3 q -7.864,-7.841 -15.714,-15.685 z m -33.578,-21.686 c 4.72,2.255 9.771,4.976 14.49,7.232 q 10.776,5.535 21.55,11.072 l 26.783,8.611 21.857,8.3 c 4.975,1.164 31.149,-0.454 34.172,-2.153 l 2.771,-3.69 c 0,-0.308 1.455,-4.5 1.455,-4.8 m 94.359,108.522 c -0.181,-7.346 0.44,-20.9 -3.15,-25.6 q -8.466,-6.612 -16.933,-13.224 l -25.243,-20.914 -63.418,-24.3 c -19.008,-8.026 -41.8,-19.05 -63.725,-22.759 l 13.545,13.225 16.932,17.223 c 17.418,13.567 25.829,17.758 45.581,29.251 m 0,0 c 8.62,11.583 23.687,30.518 32.306,42.1 L 879,760.967 890.39,751.74 c -0.1,-0.2 2.023,-4.029 1.92,-4.234 m -39.169,31.611 q -30.474,-38.442 -60.955,-76.889 l -19.394,-11.687 c -5.575,-3.479 -19.226,-14.316 -25.244,-15.378 l -34.48,31.371 c 1.1,3.809 27.472,22.481 32.324,26.142 q 34.478,26.907 68.959,53.821 l 19.7,15.378 c 2.774,2.1 5.346,5.63 8.928,6.767 q 5.081,-14.762 10.162,-29.525 z m -154.85,-30.141 q 13.546,8.917 27.091,17.838 c 22.086,14.559 41.7,29.283 68.343,39.367 16.09,6.088 28.64,17.125 44.331,5.844 -0.678,-3.82 -5.945,-6 -8.62,-8 l -23.7,-18.453 -95.435,-74.736 c -2.193,5.529 -13.472,34.49 -12.01,38.14 z m -103.13,-43.058 98.205,39.983 q 6.465,-18.914 12.929,-37.829 L 566.531,643.485 c -0.566,13.691 -3.6,26.145 -3.694,41.52 z m -33.247,-65.2 -134.532,-58.436 q -3.078,20.6 -6.157,41.212 l 136.687,58.436 v -0.619 q 2,-20.294 4.002,-40.594 z M 45.955,486.94 v 1.846 q 2.154,12.607 4.309,25.219 l 65.877,-16.915 c 3.6,-0.991 17.524,-3.07 18.471,-5.536 q -3.54,-14.763 -7.081,-29.525 h -0.307 z m 80.965,-29.217 a 92.542,92.542 0 0 0 -3.079,-23.375 l -1.232,-0.307 -78.809,28.3 q 0.615,9.994 1.231,19.991 z m 114.828,125.481 c 2.38,2.216 8.963,1.713 12.622,2.461 l 30.477,5.228 v -0.615 q 0.77,-23.064 1.54,-46.132 l -47.1,-5.537 q 0.924,17.221 1.847,34.446 c 0.582,3.894 -1.099,7.443 0.614,10.149 z m 45.562,-43.979 q 2.923,-31.062 5.85,-62.127 l -65.265,5.844 10.774,51.054 z m 2.77,52.591 h 0.616 l 44.331,12.3 q 0.462,-5.844 0.924,-11.687 c 0.876,-5.145 3.891,-35.315 2.155,-36.6 l -46.794,-10.764 q -0.615,23.375 -1.232,46.751 z m 0.616,-180.842 -69.881,24.6 c -0.927,3.654 0.838,9.362 1.538,12.918 q 2,14.915 4,29.833 l 67.112,-6.151 q -0.923,-22.758 -1.848,-45.518 c -0.676,-4.532 1.373,-12.458 -0.921,-15.682 z m -68.955,68.277 q -3.078,-20.912 -6.158,-41.827 l -83.122,22.759 q 3.232,15.53 6.465,31.063 z m -81.274,16.608 q 4.619,17.837 9.237,35.677 l 84.042,2.152 q -5.387,-24.908 -10.775,-49.824 h -3.386 q -39.556,5.999 -79.121,11.995 z m 94.2,42.443 -82.813,-2.153 q 7.542,17.989 15.085,35.984 l 69.882,11.071 q -1.074,-22.448 -2.153,-44.902 z m -84.044,8 c -1.6,-3.775 -1.53,-8.771 -5.849,-9.842 L 61.653,550.3 v 0.923 q 3.233,10.149 6.466,20.3 l 93.894,0.616 q -5.693,-12.923 -11.389,-25.841 z m -5.541,-14.455 v -1.236 c -1.707,-5.467 -7.478,-33.129 -11.7,-33.523 l -81.578,21.223 q 4.309,13.685 8.619,27.372 z m -13.237,-75.658 82.5,-23.374 c -0.874,-5.3 -10.957,-31.5 -14.162,-33.216 l -71.417,31.982 q 1.541,12.3 3.08,24.604 z m 87.736,-24.3 70.19,-24.912 q -8,-15.992 -16.008,-31.985 c -2.157,-4.223 -3.747,-10.391 -7.08,-13.533 l -61.262,36.29 q 7.08,17.068 14.161,34.139 z m 74.809,-26.449 64.956,-15.378 q 0.155,-23.986 0.308,-47.978 l -54.49,-15.378 q -16.929,15.837 -33.863,31.678 z m 16.623,-81.81 51.412,14.455 38.789,-37.521 v -0.308 l -47.717,-11.072 q -11.85,11.072 -23.7,22.144 l -18.783,11.993 v 0.308 z m 61.878,90.728 c -2.542,-4.051 -9.288,-18.344 -12.929,-19.991 l -64.033,15.071 q 1.077,31.213 2.155,62.433 l 109.6,-1.845 v -0.308 c -0.206,-0.205 -0.41,-0.409 -0.615,-0.615 z m 17.856,59.974 -93.279,2.46 q -2.156,23.219 -4.309,46.44 c -0.888,5.248 -1.951,11.444 -1.232,17.224 l 49.255,11.379 q 32.631,-38.748 65.265,-77.5 h -15.7 z m -50.8,131.325 76.654,15.993 q 2,-14.454 4,-28.91 c 0.7,-3.55 2.4,-8.966 1.54,-12.61 l -78.195,-22.451 q -1.993,23.986 -3.993,47.977 z m 99.436,63.971 q 52.022,5.69 104.054,11.38 l -120.371,-51.67 q 5.7,14.3 11.391,28.6 c 1.411,3.409 2.266,9.459 4.932,11.689 z m -5.542,-0.615 -12.313,-29.833 c -1.559,-3.965 -1.865,-10.5 -5.234,-12.609 L 342.41,610.578 q 16.622,26.908 33.248,53.822 z m -65.572,-6.151 v -0.307 l -33.248,-53.514 -41.867,-11.38 q 18.621,27.677 37.249,55.359 z m -45.248,-12.61 q -0.308,-0.462 -0.616,-0.923 l -36.018,-53.818 -41.253,-6.459 q 18.931,25.064 37.866,50.131 z m -48.025,-13.841 q -0.153,-0.462 -0.307,-0.922 l -36.943,-47.978 -64.649,-9.843 18.779,19.069 26.165,26.449 q 28.475,6.614 56.955,13.225 z m -64.955,-14.147 -45.253,-45.826 -90.2,-0.615 c 2.783,4.607 14.587,10.461 19.395,13.841 l 30.17,21.528 z M 98.292,614.575 117.071,611.499 79.82,586.28 C 75.564,583 70.62,576.691 64.12,576.131 L 9.6300004,590.893 c 0.1,0.205 0.206,0.41 0.308,0.616 Q 39.638,605.499 69.353,619.496 Z m 828.892,-264.3 c 5.027,1.537 12.979,3.985 18.009,5.522 12.02,3.544 25.47,5.289 32.63,14.456 v 0.307 l -23.4,3.69 c -0.1,75.344 -0.2,142.519 -0.3,217.862 h 205.018 q -0.615,-18.451 -1.23,-36.906 -12.765,-31.368 -25.55,-62.741 32.79,32.6 65.57,65.2 -3.99,11.841 -8,23.682 l -30.48,17.223 c -0.1,-0.512 -0.2,-1.025 -0.31,-1.537 h -56.02 l 14.46,3.382 c 13.41,4.681 26.37,12.679 34.18,23.067 1.02,-0.615 2.05,-1.231 3.07,-1.845 q 24.33,10.917 48.64,21.836 v 0.307 l -9.54,3.383 q -8.16,4.152 -16.32,8.3 c -6.78,4.161 -14.87,13.013 -21.24,15.993 -2.4,1.363 -9.14,-3.105 -11.7,-4.306 q -16.305,-7.072 -32.63,-14.147 v -0.307 q 18.165,-13.071 36.33,-26.142 c 0.1,-0.206 0.2,-0.411 0.31,-0.616 -15.1,-11.6 -26.05,-23.933 -52.65,-24.6 q -0.3,33.519 -0.61,67.046 l 11.7,-11.686 44.94,18.76 q -29.85,34.6 -59.72,69.2 c -10.88,-1.829 -19.73,-9.978 -32.32,-4.921 l 1.23,-4.921 h -101.9 c 0.67,109.147 72.83,185.668 157.62,210.982 17.04,5.089 34.93,5.729 55.72,8 V 727.131 q -6.93,-25.524 -13.85,-51.053 c 15.32,-9.987 28.82,-23.7 48.94,-28.911 3.67,3.2 11.18,32.02 13.55,38.752 l 3.39,11.38 q -7.08,4.3 -14.16,8.611 c -9.32,5.875 -29.63,19.678 -33.25,30.141 v 217.75 c 30.04,-2.756 56.68,-3.125 81.88,-9.537 138.92,-35.331 231.8,-129.357 266.91,-268.494 6.03,-23.869 6.84,-49.487 8.93,-77.811 h -46.49 q 6.315,-23.833 12.63,-47.671 c 8.07,0.79 7.22,6.545 39.35,10.892 0.11,-1.488 0,-3.557 0,-6.143 -12.52,-1.64 -26.53,-8.645 -39.05,-10.285 -4.42,-12.017 -10.6,-23.887 -9.54,-41.52 15.7,-2.972 32.75,-4.548 48.45,-7.521 0,-1.376 0,-2.731 0.01,-4.114 -15.8,3.075 -32.96,3.947 -48.77,7.022 h -0.3 q -1.08,-18.759 -2.16,-37.521 c 16.62,-1.436 34.61,-5.082 51.23,-6.517 0,-1.372 -0.01,-2.727 0,-4.113 -16.63,1.435 -34.3,4.581 -50.92,6.016 -1.67,-2.232 -2.81,-17.553 -2.77,-21.529 17.54,-1.639 36.15,-5.468 53.69,-7.108 0,-1.369 -0.01,-4.788 0,-6.169 -0.9,-0.315 -31.72,6.744 -55.85,8.971 q -22.32,-18.757 -44.64,-37.521 l 57.57,-4 c -4.84,-15.9 -13.01,-30.435 -19.39,-44.9 -20.93,-47.438 -50.8,-86.473 -80.97,-124.56 -13.89,-17.541 -30,-35.493 -47.41,-49.516 q -8.46,-7.841 -16.93,-15.685 c -14.6,-11.594 -28.95,-23.629 -44.33,-34.446 -42.93,-30.200001 -90.39,-52.935001 -143.46,-73.505001 -27.77,-10.765 -58.42,-16.507 -89.89,-23.374 -31.15,-6.8 -60.63,-7.038 -100.36,-8.919 -0.1,69.706 -0.2,141.479001 -0.31,211.185001 61.88,36.082 123.76,70.129 185.64,106.211 1.64,3.867 -10.47,31.816 -11.7,39.06 -60.74,-38.543 -121.51,-75.051 -182.25,-113.593 q 1.995,-14.454 4,-28.91 V 14.220999 c -26.24,-0.034 -48.3,-0.939 -71.111,2.768 l -45.87,4.614 c -33.254,5.9 -65.761,9.359 -96.665,17.223 -61.378,15.616 -117.387,32.392 -170.241,55.465 C 549.784,101.467 533.087,108.191 517.891,117.05 l -53.566,29.833 -34.479,21.836 c 2.564,12.1 5.13,20.1 7.695,32.2 l -10.159,5.229 -20.934,-4.306 c -2.045,-5.239 -21.549,-57.1 -21.549,-57.513 l 26.475,-5.228 c 6.6,5.855 9.827,19.434 16.624,25.009 l 40.637,-25.527 49.256,-27.072 c 36.565,-21.251001 79.695,-35.240001 121.293,-51.361001 42.6,-16.511 89.7,-24.177 138.226,-34.859 l 46.485,-7.074 c 28.374,-5.232 63.912,-9.5529997 96.74,-9.8829997 -306.607,-0.074 -614.037,0.1 -920.63499963378899,-0.006 V 419.896 C 18.441,415.511 28.262,412.711 40.413,409.744 c -0.883,10.533 -1.328,39.071 -1.847,49.824 -12.21,3.28 -25.963,8.211 -38.17499963,11.491 v 6.169 c 0.317,-0.637 0.168,-0.618 2.05900003,-2.056 C 14.558,471.994 26.457,467.359 38.565,464.181 l 0.307,0.308 c 0.983,3.792 0.41,9.927 1.54,14.455 v 5.228 c -12.928,3.178 -27.093,8.387 -40.02099963,11.564 0,-3.448 0.189,8.825 0,4.113 C 12.705,496.671 26.868,491.964 39.181,488.786 l 1.848,0.307 c 1.982,7.808 4.562,17.039 4.617,26.142 -14.673,3.383 -30.582,10.022 -45.25499963,13.405 0,-6.611 0.115,8.9 0,4.113 C 14.756,529.37 30.973,523.231 45.338,519.853 h 1.847 q 4.155,13.378 8.313,26.757 c -17.957,4.401 -37.149,10.525 -55.10599963,14.933 0,-7.152 0.121,6.161 0,4.113 C 18.041,561.356 37.542,555.524 55.192,551.219 h 1.849 q 3.078,9.84 6.158,19.684 v 1.23 L 1.9320004,588.125 c -0.1,0 -1.43700003,0.152 -1.54000003,0.152 v 6.169 c 1.43800003,-0.013 2.39300003,-0.016 4.11800003,0 C 26.754,604.607 49.716,615.06 61.347,620.419 c -19.8,3.792 -41.15,7.251 -60.95499963,11.044 V 958.411 H 950.111 V 375.176 c -21.142,1.536 -43.3,6.5 -61.568,12 -9.132,2.665 -18.266,9.426 -27.4,12.091 -11.492,-1.947 -22.988,-7.991 -34.48,-9.938 q -4,-6.457 -8,-12.918 c 0,-0.1 -2.249,-9.645 -2.249,-9.747 m -702.116,13.863 q -34.476,14.145 -68.957,28.294 -0.924,24.448 -1.848,48.9 l 79.735,-28.3 q -3.079,-17.376 -6.157,-34.754 c -0.907,-4.209 -0.401,-11.118 -2.773,-14.14 z m 60.643,-44.288 q -27.7,21.219 -55.41,42.443 2.923,16.912 5.849,33.83 c 0.943,4.4 0.325,11.583 2.771,14.762 l 71.114,-31.985 q -8.928,-22.295 -17.855,-44.595 c -1.501,-3.639 -3.077,-12.812 -6.469,-14.455 z m 56.644,-27.988 -51.411,24.912 23.7,59.666 44.947,-26.142 c 3.213,-1.922 14.745,-6.758 15.7,-9.842 l -32.008,-48.594 h -0.924 z m 44.946,-31.063 -39.405,28.3 31.094,48.9 c 3.627,-1.168 30.485,-26.979 33.554,-31.063 q -8.925,-16.452 -17.855,-32.908 c -2.322,-3.973 -3.738,-10.612 -7.384,-13.229 z m 46.793,-51.053 c -4.243,13.2 -20.674,31.019 -30.784,39.059 l -11.083,8.611 q 12.466,23.218 24.935,46.441 c 16.286,-9.125 33.454,-19.375 44.024,-34.138 l -19.7,-44.6 c -1.749,-4.365 -3.316,-13.397 -7.388,-15.373 z m 57.568,-77.2 -6.772,12.917 -9.851,19.684 -37.247,39.375 26.476,60.28 c 3.969,-1.487 10.78,-14.526 13.545,-18.453 A 442.945,442.945 0 0 0 401.83,204.611 C 399.881,199.07 381,148.939 380.896,148.939 Z m 56.029,57.205 c -7.013,8.253 -20.661,0.792 -31.708,0.615 l -6.465,13.225 c -8.464,16.516 -18.023,30.932 -28.322,45.517 -4.011,5.68 -11.324,12.632 -13.237,19.684 l 34.787,8 c 3.753,1.062 9.435,4.605 14.16,2.461 l 27.405,-39.982 q 0.922,-13.532 1.847,-27.065 c 0.712,-4.42 3.023,-18.611 1.537,-22.451 z m 43.408,312.474 -68.344,-43.365 -47.1,55.975 c -4.076,5.148 -16.716,16.54 -18.47,22.144 l 78.194,22.759 q 28.165,-28.139 56.336,-56.283 z m 4.617,3.383 q -27.7,27.985 -55.412,55.975 l 40.02,17.531 94.818,41.212 44.639,-47.978 c -1.666,-3.768 -20.2,-15.508 -24.628,-18.761 l -24.321,-18.453 z m 177.616,30.988 c -0.669,-3.5 -4.887,-15.494 -7.681,-17.147 q -16.314,-5.384 -32.632,-10.766 l -14.774,1.539 c -15.708,2.636 -34.363,2.452 -50.488,4.921 l -32.631,0.922 0.307,0.616 q 18.624,7.226 37.251,14.455 c 2.872,2.357 9.573,7.2 12.446,9.555 m 57.436,-323.519 c 1.95,8.2 3.9,17.164 5.849,25.364 l 8.619,6.766 14.777,11.38 c 9.444,5.3 25.085,11.94 36.943,14.139 l 21.242,1.845 82.815,29.223 86.2,12.3 c 23.908,6.765 51.925,13.533 75.835,20.3 -0.93,-1.026 -1.85,-2.051 -2.77,-3.076 -8.42,-9.43 -20.936,-25.007 -29.351,-34.438 -14.262,-5.535 -28.666,-10.732 -42.79,-16.607 -12.116,-5.04 -27.175,-11.639 -46.081,-20.1 m 0,0 c -11.287,-6.048 -29.447,-15.068 -40.733,-21.116 L 784.803,249.7 q -19.854,-5.383 -39.713,-10.765 c -29.49,-9.216 -61.143,-18.75 -99.128,-18.76 -4.627,4.52 -4.719,4.528 -14.161,13.387 m 37.25,-40.76 14.469,12.61 c 28.637,22.927 63.72,25.273 100.36,39.674 q 3.23,-21.219 6.464,-42.442 l -120.37,-36.292 c -0.361,5.428 -3.843,21.236 -0.928,26.453 z m 20.933,-41.827 c -5.41,3.664 -16.06,4.627 -18.163,11.38 l 118.826,35.986 0.616,-0.307 q 0.462,-13.071 0.923,-26.142 z m 99.436,96.88 q 23.7,12.453 47.409,24.911 c 19.438,11.306 42.09,18.548 63.725,27.68 l 32.017,12.917 q 3.078,-20.757 6.158,-41.52 c 0.594,-3.057 2.5,-11.391 0.615,-12.917 L 795.265,204.8 c -1.833,6.511 -8.324,37.911 -5.85,43.058 z m 156.086,-27.066 q -28.019,-9.84 -56.034,-19.683 l -92.355,-27.68 q -0.617,13.379 -1.231,26.757 l 145.608,54.748 c 1.433,-5.23 5.107,-29.608 4.007,-34.139 z m 178.55,152.96 c -59.72,-37.825 -119.45,-73.614 -179.17,-111.44 q -2.924,19.067 -5.85,38.137 c -0.854,4.133 -3.574,10.842 -1.847,15.685 q 5.079,5.535 10.157,11.072 c 5.38,6.673 15.03,18.9 21.04,24.9 14.95,14.935 28.76,19.271 45.77,32.1 q 23.535,18.452 47.1,36.907 31.695,-23.219 63.41,-46.441 c -0.205,-0.302 -0.415,-0.61 -0.615,-0.917 z m -58.8,49.824 c 1.52,4.607 12.96,12.8 16.93,15.993 15.14,12.165 27.76,27.4 43.72,38.751 q 39.555,-33.366 79.11,-66.739 l -0.3,-0.615 q -37.71,-17.069 -75.43,-34.138 -32.015,23.375 -64.035,46.751 z m 67.11,-50.746 54.49,24.911 c 5.07,2.231 16.39,9.569 21.24,9.534 q 6.315,-26.907 12.62,-53.822 -37.7,-9.532 -75.42,-19.068 -6.47,19.229 -12.935,38.448 z m 8.01,-46.441 v -1.23 q -5.085,-22.6 -10.16,-45.211 l -115.14,-26.449 q 62.635,36.444 125.295,72.893 z m 400.005,169.325 h 0.01 m 0,-4.921 v 0.808 0 z m 0,-36.208 c 0,16.049 -0.03,18.176 0,2.056 v -2.057 z m -547.57,-59.256" /></g></g></svg>
