<svg xmlns="http://www.w3.org/2000/svg" width="500" height="500" viewBox="0 0 500 500">
  <defs>
    <style>
      .cls-1 {
        fill-rule: evenodd;
      }
    </style>
  </defs>
  <path id="ANTHALA" class="cls-1" d="M388.307,403.089c-43.813-19.955-72.021-32.308-82.884-51.871C283.566,311.857,273,176.1,265.27,96.326,261.541,55.907,255.478.313,261.6,0.01c10.625-.526,14.372,13.524,31.439,47.548,149.433,297.913,201.339,383.264,191.49,394.434C480.259,446.835,434.209,424,388.307,403.089Zm-271.614,0c43.889-19.955,72.145-32.308,83.026-51.871,21.9-39.361,32.482-175.121,40.222-254.892C243.676,55.907,249.75.313,243.618,0.01c-10.644-.526-14.4,13.524-31.493,47.548C62.437,345.471,10.442,430.822,20.307,441.992,24.584,446.835,70.713,424,116.693,403.089ZM250,404.757c-24.495,0-70.328,18.432-131.679,37.877C67.1,460.252,0,480.574,0,494.58c0,5.911,2.876,5.411,7.634,5.411,19.93,0,131.778-.036,242.366,0m0-95.234c24.5,0,70.328,18.432,131.679,37.877C432.907,460.252,500,480.574,500,494.58c0,5.911-2.876,5.411-7.634,5.411-19.93,0-131.779-.036-242.366,0"/>
</svg>
