<?xml version="1.0" encoding="UTF-8" standalone="no"?>
<svg
   width="6850.061"
   height="6854.0898"
   viewBox="0 0 6850.061 6854.0898"
   version="1.1"
   id="svg1"
   sodipodi:docname="Favicon_light.svg"
   xmlns:inkscape="http://www.inkscape.org/namespaces/inkscape"
   xmlns:sodipodi="http://sodipodi.sourceforge.net/DTD/sodipodi-0.dtd"
   xmlns="http://www.w3.org/2000/svg"
   xmlns:svg="http://www.w3.org/2000/svg">
  <sodipodi:namedview
     id="namedview1"
     pagecolor="#ffffff"
     bordercolor="#000000"
     borderopacity="0.25"
     inkscape:showpageshadow="2"
     inkscape:pageopacity="0.0"
     inkscape:pagecheckerboard="0"
     inkscape:deskcolor="#d1d1d1" />
  <defs
     id="defs1">
    <style
       id="style1">
      .cls-1 {
        fill: #073858;
        fill-rule: evenodd;
      }
    </style>
  </defs>
  <path
     id="Negativ_matrice_copy_2"
     data-name="Negativ matrice copy 2"
     class="cls-1"
     d="M 70.689997,6842.32 H -2.9907227e-6 V 6348.01 H 70.689997 Z M 943.651,6348.01 h 70.69 v 506.08 L 601.986,6433.63 v -97.39 l 341.665,350.13 z m -270.976,494.31 h -70.689 v -349.07 l 70.689,70.99 z M 2.335997,6035.81 V 4525.16 a 26.245,26.245 0 0 1 26.254,-26.23 H 1024.251 v 251.78 H 543.169 A 104.966,104.966 0 0 0 438.15,4855.62 v 854.98 h 0.268 a 104.882,104.882 0 0 0 104.751,99.66 h 481.082 v 251.77 H 28.589997 a 26.237,26.237 0 0 1 -26.254,-26.22 z M 1410.701,4499.05 c 420.68,4.92 760.22,352.86 760.22,781.43 0,428.57 -339.54,776.51 -760.22,781.44 -0.39,0.01 -0.76,0.11 -1.15,0.11 h -330.44 v -251.77 h 4.89 v -0.06 c 0.88,0.01 1.75,0.06 2.63,0.06 352.34,0 637.97,-237.19 637.97,-529.78 0,-292.59 -285.63,-529.77 -637.97,-529.77 -0.88,0 -1.75,0.05 -2.63,0.05 v -0.05 h -4.89 v -251.78 h 330.44 c 0.39,0 0.76,0.1 1.15,0.12 z m 476.88,1848.96 h 70.69 v 506.08 l -412.35,-420.46 v -97.39 l 341.66,350.13 z m -270.97,494.31 h -70.69 v -349.07 l 70.69,70.99 z m 572.98,-1983.05 c 207.61,-226.48 573.51,-379.05 992.75,-386.22 v 241.58 c -384.41,13.23 -691.13,272.01 -691.13,589.46 0,317.45 306.72,576.23 691.13,589.46 v 215.34 c -424.12,-7.24 -793.82,-163.21 -1000.1,-394.05 72.78,-127.51 114.69,-275.87 114.69,-434.36 0,-153.07 -39.1,-296.69 -107.34,-421.21 z m 510.33,1483.72 v 70.85 c -91.95,9.89 -162.44,86.62 -162.44,181.32 0,94.7 70.49,171.43 162.44,181.32 v 70.85 c -130.47,-10.28 -233.14,-119.2 -233.14,-252.17 0,-132.97 102.67,-241.89 233.14,-252.17 z m 273.48,252.17 c 0,132.97 -102.67,241.89 -233.14,252.17 v -70.85 c 91.96,-9.89 162.45,-86.63 162.45,-181.32 0,-94.69 -70.5,-171.43 -162.45,-181.32 v -70.85 c 130.47,10.28 233.14,119.2 233.14,252.17 z m 1444.86,-1304.19 c 0,446.47 -526.61,809.37 -1181.05,818.06 v -215.34 c 387.6,-10.38 697.97,-270.28 697.97,-589.6 0,-319.32 -310.37,-579.23 -697.97,-589.6 v -241.58 c 654.44,8.69 1181.05,371.6 1181.05,818.06 z m -782.11,1396.87 0.15,-0.32 36.42,83.89 -36.57,82.68 -223.84,-506.08 h 76.57 z m 147.28,-339.83 h 76.57 l -165.86,374.97 -36.75,-84.12 z m 920.02,494.31 h -76.59 l -47.85,-105.93 h -0.26 l -110.94,-244.21 -110.94,244.21 h -0.25 l -47.86,105.93 h -76.58 l 235.63,-506.08 z m 703.94,-424.95 h -329.88 v -69.36 h 329.88 z m -129.6,424.95 h -70.68 v -384.66 h 70.68 z m 449.07,-2343.27 c 420.67,4.92 760.21,352.86 760.21,781.43 0,428.57 -339.54,776.51 -760.21,781.44 -0.39,0.01 -0.76,0.11 -1.16,0.11 h -293.82 v -252.38 c 338.82,-12.64 608.87,-244.68 608.87,-529.17 0,-284.49 -270.05,-516.52 -608.87,-529.16 v -252.39 h 293.82 c 0.4,0 0.77,0.1 1.16,0.12 z m 236.44,2343.27 h -70.69 v -494.31 h 70.69 z m 392.5,-2199.96 v -63.2 a 69.731,69.731 0 0 1 69.73,-69.73 h 348.87 a 69.731,69.731 0 0 1 69.73,69.73 v 1418.38 a 69.733,69.733 0 0 1 -69.73,69.74 h -348.87 a 69.733,69.733 0 0 1 -69.73,-69.74 v -115.65 c 142.71,-135.79 236.29,-362.67 236.29,-619.77 0,-257.1 -93.58,-483.97 -236.29,-619.76 z m 305.6,2135.22 c 74.37,0 114.87,-30.15 114.87,-77.23 0,-39.72 -44.91,-63.99 -112.65,-75.76 -137.7,-23.55 -176.73,-72.83 -176.73,-139.03 0,-80.18 62.59,-143.44 178.2,-143.44 20.61,0 98.67,2.21 159.79,58.85 l -33.88,63.99 c -25.77,-25.01 -65.53,-52.22 -127.38,-52.22 -67.74,0 -106.04,25.74 -106.04,69.88 0,38.25 33.87,55.9 111.92,71.35 117.82,22.8 177.46,60.32 177.46,143.43 0,86.06 -71.42,150.8 -187.03,150.8 -119.29,0 -182.62,-71.35 -189.98,-80.18 l 35.34,-63.26 c 41.24,45.61 97.94,72.82 156.11,72.82 z m 18.85,-5086.65 c -12.55,-50.82 -40.04,-99.2 -60.05,-144.86 q -96.15,-219.345 -226.58,-404.52 C 6066.751,676.666 5627.711,314.72 5027.351,124.793 4884.191,79.504 4733.301,54.842 4570.101,25.03 c 186.76,-1.686 -426.12,2.708 2251.77,3.159 0.06,557.719 0.4,1106.4 0,1663.171 -54.14,3.64 -87.48,-4.08 -141.62,-0.43 z m -1826.25,944.32 v 322.52 q -39.57,39.63 -79.16,79.27 -22.515,84.72 -45.04,169.45 h -457.25 c -1.33,-87.49 20.25,-159.34 46.41,-220.02 80.97,-187.85 269.92,-349.31 535.04,-351.22 z m -604.65,-19.13 q 277.05,0.69 554.15,1.37 c -70.64,-0.98 -137.07,25.57 -188.36,47.83 -145.11,62.96 -255.59,167.68 -318.02,312.95 -16.18,37.66 -27.17,79.47 -36.85,123 q -4.1,31.425 -8.19,62.86 -1.365,-273.975 -2.73,-548.01 z m 4.09,668.27 c -2.06,123.23 36.1,236.29 73.71,325.25 107.33,253.9 288.75,440.62 544.6,545.28 59.88,24.5 125.5,40.34 195.18,54.66 37.3,4.11 78.63,14.72 115.93,18.81 -308.44,0 -620.98,1.55 -929.42,1.55 z m 1596.95,813.13 c 423.6,-180.52 723.15,-491.69 894.01,-925.19 38.53,-97.76 56.15,-196.75 77.47,-301.05 -0.58,46.67 0,374.8 0,1359.05 -517.25,-0.45 -1009,-1.48 -1526.25,-1.94 202.74,3.99 411.11,-69.65 554.77,-130.87 z m -1531.9,1938.29 v -250.62 c 139.24,-141.47 220.53,-311.38 220.53,-494.22 0,-182.84 -81.29,-352.75 -220.53,-494.22 v -271.59 a 26.245,26.245 0 0 1 26.26,-26.23 h 1032.26 v 251.78 h -517.69 a 104.957,104.957 0 0 0 -105.01,104.91 v 854.98 h 0.26 a 104.883,104.883 0 0 0 104.75,99.66 h 517.69 v 251.77 h -1032.26 a 26.236,26.236 0 0 1 -26.26,-26.22 z m 534.15,-2743.22 q -45.045,-17.085 -90.09,-34.16 -23.88,6.825 -47.77,13.66 5.46,91.56 10.92,183.13 31.395,55.335 62.79,110.69 59.355,-3.4 118.74,-6.83 -19.785,-99.075 -39.58,-198.16 c -4.31,-18.43 -3.07,-56.24 -15.01,-68.33 z m 285.26,-307.49 q -131.01,151.68 -262.06,303.39 24.57,126.405 49.14,252.82 c 18.16,-6.31 82.01,-108.41 99.64,-129.82 q 42.99,-23.925 85.99,-47.84 51.855,-51.915 103.73,-103.86 -27.975,-101.8 -55.96,-203.62 c -5.6,-18.6 -7.16,-59.11 -20.48,-71.07 z m -84.62,-1772.49 q 23.2,108.63 46.41,217.29 163.77,40.995 327.58,82 -31.4,-71.745 -62.79,-143.49 c -15.52,-35.62 -26.19,-79.15 -46.41,-110.7 q -132.375,-22.545 -264.79,-45.1 z m 967.72,378.55 q -337.095,-161.235 -674.27,-322.52 53.235,125.04 106.47,250.09 302.97,135.285 606.02,270.59 -14.34,-73.785 -28.67,-147.59 c -3.41,-16.01 0.45,-41.06 -9.55,-50.57 z m -625.13,192.7 q 319.365,107.94 638.78,215.92 13.65,-92.925 27.3,-185.86 l -607.39,-271.95 q -29.34,120.93 -58.69,241.89 z m 1165.63,86.09 q -94.845,-80.625 -189.72,-161.26 -162.405,-53.97 -324.85,-107.96 18.435,99.075 36.86,198.16 l 477.71,72.43 z m 24.57,25.97 q -251.115,-38.265 -502.28,-76.53 c -0.46,0.45 -0.91,0.91 -1.37,1.36 q -12.96,90.87 -25.93,181.76 42.3,-4.1 84.62,-8.2 c 53.41,-8.79 169.01,-13.19 227.94,-4.1 q 115.32,0.69 230.67,1.37 c 0.43,-16.5 -6.72,-90.48 -13.65,-95.66 z m 24.57,262.39 q -4.77,-72.435 -9.55,-144.86 -209.49,-1.38 -419.03,-2.74 -62.775,6.84 -125.57,13.67 39.57,142.11 79.16,284.25 h 4.1 q 235.425,-60.81 470.89,-121.62 z m 0,47.83 q -232.695,60.12 -465.43,120.26 34.125,73.785 68.24,147.59 203.355,-82.665 406.75,-165.36 -4.785,-51.24 -9.56,-102.49 z m -12.28,414.08 c -0.07,-76.66 102.1,-231.29 25.93,-292.45 q -200.625,82.665 -401.28,165.36 11.6,106.575 23.2,213.18 176.055,-43.035 352.15,-86.09 z m -906.3,322.52 h 1.36 q 50.49,-15.72 101.01,-31.43 73.005,-21.87 146.04,-43.73 79.155,-43.725 158.33,-87.47 63.465,-34.155 126.94,-68.33 -8.88,-75.15 -17.75,-150.32 c -3.72,-23.2 0.88,-44.39 -8.19,-60.14 h -4.09 q -146.04,34.86 -292.09,69.7 -159.675,63.54 -319.39,127.1 c 3.86,11.11 66.65,47.26 80.53,51.93 0.05,45.92 13.72,87.24 21.84,128.46 z m -225.21,105.23 q 100.995,-47.835 202,-95.66 c 1.15,-71.52 -8.05,-133.51 -25.93,-191.33 l -87.36,-49.2 q -79.83,58.08 -159.69,116.16 35.49,110.01 70.98,220.03 z m -309.84,-400.42 q -2.04,30.75 -4.09,61.5 116.01,51.24 232.03,102.5 77.115,-56.715 154.24,-113.43 h -2.73 l -237.5,-133.93 q -70.965,41.67 -141.95,83.36 z m 158.33,-98.39 q 86.67,47.82 173.35,95.66 c 20.54,12.22 41.68,36.94 68.24,41 15.76,2.4 38.2,-14.04 50.5,-19.14 q 64.83,-25.95 129.67,-51.93 81.885,-32.115 163.79,-64.23 146.715,-34.155 293.45,-68.33 c -3.75,-18.62 -62.18,-137.49 -73.7,-148.96 h -9.56 q -92.115,12.3 -184.26,24.6 -198.57,32.115 -397.19,64.23 c -45.56,9.04 -148.89,12.08 -181.53,31.43 z m 30.03,-120.27 q 217,-35.52 434.04,-71.06 c 111.2,-20.71 232.93,-14 335.77,-45.1 v -1.36 q -40.95,-144.855 -81.89,-289.72 -325.515,-110.685 -651.07,-221.39 -178.095,151.665 -356.24,303.38 159.675,162.615 319.39,325.25 z m -1215.44,-909.24 c -47.31,-12.29 -125.36,-34.22 -172.67,-46.52 q -154.9,53.97 -309.84,107.96 c -1.36,10.93 -7.24,0.42 -8.6,11.35 m -536.59,-191.07 c 6.82,12.76 18.34,38.51 25.16,51.26 44.12,75.61 85.41,58.52 184.26,73.8 l 159.7,15.03 q 122.145,-23.235 244.32,-46.46 c 33.94,-7.36 158.65,-18.27 177.44,-32.8 q -159.69,-22.545 -319.39,-45.1 c -41.13,-10.53 -42.02,-15.19 -125.89,-43.02 m 0,0 c -56.65,-22.49 -83.39,-32.76 -137.54,-47.18 -55.39,4.21 -122.73,-5.1 -165.16,13.67 -13.2,5.84 -42.68,25.16 -42.9,60.8 m 454.73,1401.16 c 1.82,-18.22 5.38,-38.33 7.2,-56.55 q -19.785,-30.735 -39.58,-61.49 -77.115,-20.5 -154.24,-41 -94.155,-27.33 -188.35,-54.67 -225.87,-15.705 -451.79,-31.43 c 19.23,28.58 74.07,42.13 107.83,56.03 41.4,20.04 131.85,59.89 173.25,79.93 m -445.64,-254.75 c 27.75,20.95 67.2,50.01 94.95,70.96 q 111.24,-21.18 222.48,-42.36 c 35.95,-7.84 69.64,-5.6 73.64,-46.8 m 203.44,369.32 q -124.875,-58.77 -249.78,-117.53 -87.345,-41.685 -174.71,-83.37 -98.265,107.955 -196.55,215.93 312.54,143.475 625.13,286.99 77.79,-71.07 155.6,-142.13 c -23.76,-32.49 -58.8,-64.99 -90.08,-90.2 q -34.8,-34.845 -69.61,-69.69 z m -148.87,-96.37 c 20.92,10.02 43.32,22.11 64.24,32.13 q 47.775,24.6 95.55,49.2 59.37,19.14 118.75,38.27 48.435,18.45 96.9,36.9 c 22.06,5.17 138.1,-2.02 151.51,-9.57 q 6.135,-8.205 12.28,-16.4 c 0,-1.36 6.45,-19.98 6.45,-21.35 m 418.36,482.22 c -0.8,-32.64 1.95,-92.87 -13.97,-113.75 q -37.53,-29.385 -75.07,-58.76 -55.95,-46.47 -111.92,-92.93 -140.565,-53.985 -281.17,-107.97 c -84.28,-35.66 -185.33,-84.65 -282.54,-101.13 l 60.06,58.77 q 37.53,38.265 75.07,76.53 c 77.22,60.28 114.51,78.91 202.09,129.97 m 0,0 c 38.21,51.48 105.02,135.61 143.23,187.08 l 225.21,82 q 25.245,-20.505 50.5,-41 c -0.45,-0.91 8.96,-17.9 8.51,-18.81 m -173.66,140.44 q -135.12,-170.8 -270.26,-341.65 -42.975,-25.965 -85.99,-51.93 c -24.71,-15.46 -85.23,-63.62 -111.92,-68.34 q -76.425,69.7 -152.87,139.4 c 4.86,16.93 121.8,99.9 143.32,116.16 l 305.74,239.16 q 43.665,34.155 87.35,68.33 c 12.3,9.31 23.7,25.01 39.58,30.06 q 22.53,-65.58 45.05,-131.19 z m -686.55,-133.93 q 60.045,39.63 120.11,79.26 c 97.92,64.7 184.87,130.12 303.01,174.93 71.33,27.06 126.98,76.09 196.55,25.97 -3.01,-16.97 -26.36,-26.65 -38.22,-35.54 q -52.545,-40.995 -105.1,-81.99 -211.545,-166.035 -423.12,-332.09 c -9.71,24.55 -59.72,153.24 -53.23,169.46 z m -457.25,-191.32 435.41,177.65 q 28.65,-84.03 57.32,-168.09 -309.8,-143.475 -619.67,-286.98 c -2.51,60.83 -15.97,116.17 -16.38,184.49 q 71.67,46.455 143.32,92.93 z m -147.41,-289.73 q -298.2,-129.81 -596.46,-259.65 -13.65,91.545 -27.3,183.13 302.97,129.81 606.02,259.65 v -2.73 q 8.865,-90.195 17.74,-180.4 z m -2287.59,-683.3 v 8.2 q 9.554,56.025 19.107,112.06 146.037,-37.575 292.093,-75.16 c 15.957,-4.4 77.7,-13.64 81.893,-24.6 q -15.693,-65.6 -31.392,-131.19 h -1.366 q -180.147,55.335 -360.335,110.69 z m 358.972,-129.83 c 0.306,-35.46 -5.77,-74.45 -13.649,-103.86 -1.82,-0.46 -3.642,-0.91 -5.462,-1.37 q -174.69,62.865 -349.416,125.73 l 5.46,88.83 z m 509.115,557.58 c 10.55,9.85 39.73,7.61 55.96,10.93 q 67.56,11.625 135.12,23.23 v -2.73 q 3.42,-102.48 6.83,-204.99 -104.415,-12.3 -208.83,-24.6 4.08,76.53 8.18,153.06 c 2.603,17.3 -4.857,33.07 2.743,45.1 z m 202,-195.43 q 12.975,-138.015 25.94,-276.05 -144.675,12.975 -289.36,25.97 23.88,113.415 47.77,226.85 107.808,11.61 215.653,23.23 z m 12.29,233.69 h 2.73 q 98.265,27.33 196.54,54.67 2.055,-25.965 4.1,-51.93 c 3.88,-22.86 17.25,-156.92 9.55,-162.63 q -103.725,-23.91 -207.46,-47.83 -2.727,103.845 -5.457,207.72 z m 2.73,-803.56 -309.84,109.33 c -4.11,16.23 3.72,41.59 6.83,57.4 q 8.865,66.27 17.74,132.56 148.755,-13.665 297.55,-27.34 -4.1,-101.115 -8.19,-202.25 c -3.027,-20.16 6.083,-55.38 -4.087,-69.7 z m -305.74,303.38 q -13.65,-92.91 -27.3,-185.85 -184.248,50.55 -368.527,101.13 14.327,69 28.663,138.02 183.564,-26.64 367.167,-53.3 z m -360.34,73.8 q 20.472,79.26 40.948,158.53 l 372.622,9.57 q -23.88,-110.685 -47.77,-221.4 h -15.02 q -175.366,26.66 -350.777,53.3 z m 417.66,188.59 q -183.555,-4.77 -367.159,-9.56 33.44,79.935 66.881,159.89 154.9,24.6 309.838,49.2 -4.782,-99.75 -9.557,-199.53 z m -372.617,35.54 c -7.082,-16.78 -6.786,-38.98 -25.934,-43.73 q -184.243,30.735 -368.526,61.49 v 4.1 q 14.331,45.09 28.663,90.2 l 416.3,2.73 q -25.247,-57.39 -50.5,-114.79 z m -24.57,-64.23 v -5.47 c -7.565,-24.29 -33.151,-147.21 -51.867,-148.96 l -361.7,94.3 q 19.106,60.8 38.217,121.62 187.659,-30.73 375.35,-61.49 z m -58.69,-336.19 q 182.879,-51.93 365.8,-103.86 c -3.87,-23.57 -48.58,-139.96 -62.79,-147.6 q -158.308,71.07 -316.657,142.13 6.823,54.66 13.65,109.33 z m 389,-107.96 q 155.6,-55.35 311.2,-110.7 -35.475,-71.055 -70.98,-142.12 c -9.57,-18.77 -16.61,-46.17 -31.39,-60.14 q -135.8,80.625 -271.62,161.26 31.395,75.84 62.79,151.7 z m 331.68,-117.53 q 143.97,-34.155 287.99,-68.33 0.69,-106.59 1.37,-213.19 -120.8,-34.17 -241.59,-68.33 -75.075,70.365 -150.14,140.76 z m 73.7,-363.52 q 113.955,32.115 227.94,64.23 85.98,-83.355 171.98,-166.72 v -1.37 q -105.765,-24.6 -211.56,-49.2 -52.545,49.2 -105.1,98.4 -41.625,26.64 -83.26,53.3 z m 274.35,403.15 c -11.27,-18 -41.18,-81.52 -57.33,-88.83 l -283.9,66.97 q 4.77,138.69 9.55,277.42 242.94,-4.11 485.91,-8.2 v -1.37 l -2.73,-2.73 q -75.735,-121.62 -151.5,-243.26 z m 79.16,266.49 q -206.76,5.46 -413.57,10.93 -9.54,103.17 -19.1,206.36 c -3.94,23.32 -8.65,50.85 -5.46,76.53 q 109.17,25.275 218.38,50.57 144.675,-172.185 289.36,-344.39 z m -225.21,583.54 q 169.92,35.535 339.86,71.06 8.88,-64.215 17.75,-128.46 c 3.09,-15.77 10.65,-39.83 6.82,-56.03 q -173.325,-49.875 -346.69,-99.76 -8.865,106.59 -17.74,213.19 z m 440.87,284.26 q 230.64,25.275 461.34,50.56 -266.82,-114.78 -533.68,-229.59 25.245,63.54 50.5,127.09 c 6.23,15.14 10.02,42.03 21.84,51.94 z m -24.57,-2.74 q -27.3,-66.27 -54.6,-132.56 c -6.9,-17.62 -8.26,-46.68 -23.2,-56.03 q -163.77,-35.52 -327.58,-71.06 73.695,119.565 147.41,239.15 128.97,10.26 257.97,20.5 z m -290.73,-27.33 v -1.37 l -147.41,-237.78 q -92.805,-25.29 -185.62,-50.57 82.56,122.985 165.15,245.99 83.94,21.87 167.88,43.73 z m -200.64,-56.03 c -0.91,-1.37 -1.82,-2.73 -2.73,-4.1 q -79.83,-119.565 -159.69,-239.16 -91.44,-14.34 -182.9,-28.7 83.94,111.375 167.88,222.76 88.71,24.6 177.44,49.2 z m -212.92,-61.5 c -0.46,-1.36 -0.91,-2.73 -1.37,-4.1 q -81.885,-106.575 -163.79,-213.19 -143.3,-21.855 -286.629,-43.73 41.626,42.36 83.258,84.73 58.007,58.755 116.021,117.53 126.24,29.37 252.51,58.76 z m -288,-62.86 Q 850.056,2626.42 749.718,2524.59 L 349.8,2521.86 c 12.338,20.47 64.671,46.48 85.989,61.5 q 66.876,47.82 133.762,95.66 190.386,24.6 380.81,49.2 z m -495.463,-34.17 q 41.625,-6.825 83.261,-13.66 L 373.005,2568.33 c -18.872,-14.58 -40.794,-42.61 -69.611,-45.1 q -120.781,32.79 -241.590003,65.59 c 0.457,0.91 0.91,1.83 1.366,2.74 Q 194.87,2653.735 326.597,2715.92 q 64.144,-10.935 128.301,-21.87 z m 3675.033,-1174.4 c 22.29,6.84 57.54,17.71 79.84,24.54 53.3,15.75 112.95,23.5 144.68,64.24 v 1.36 q -51.87,8.2 -103.74,16.4 c -0.45,334.79 -0.91,633.28 -1.36,968.06 h 909.03 q -2.73,-81.975 -5.46,-163.99 -56.64,-139.38 -113.29,-278.79 145.35,144.855 290.73,289.72 -17.745,52.62 -35.49,105.23 -67.56,38.265 -135.13,76.53 c -0.45,-2.27 -0.91,-4.55 -1.36,-6.83 h -248.42 q 32.07,7.515 64.16,15.03 c 59.41,20.8 116.9,56.34 151.5,102.5 q 6.825,-4.11 13.65,-8.2 107.82,48.51 215.65,97.03 v 1.36 q -21.15,7.515 -42.31,15.04 -36.165,18.435 -72.34,36.9 c -30.07,18.48 -65.93,57.82 -94.18,71.06 -10.66,6.05 -40.55,-13.8 -51.86,-19.13 q -72.345,-31.44 -144.68,-62.87 v -1.36 q 80.52,-58.08 161.06,-116.17 c 0.45,-0.91 0.91,-1.82 1.36,-2.73 -66.94,-51.53 -115.49,-106.35 -233.4,-109.33 q -1.365,148.95 -2.73,297.92 l 51.87,-51.93 q 99.63,41.685 199.27,83.37 -132.375,153.72 -264.79,307.48 c -48.22,-8.12 -87.49,-44.33 -143.31,-21.86 l 5.46,-21.87 h -451.79 c 2.98,484.99 322.93,825.01 698.84,937.49 75.56,22.61 145.94,35.09 247.72,42.41 0,-335.7 -0.67,-678.37 -0.67,-1014.07 q -30.72,-113.415 -61.43,-226.85 c 67.94,-44.37 127.78,-105.3 217.02,-128.46 16.27,14.22 49.57,142.27 60.06,172.19 q 7.5,25.275 15.01,50.56 -31.38,19.14 -62.78,38.27 c -41.32,26.1 -131.37,87.44 -147.41,133.93 0,322.48 0.33,651.94 0.33,974.43 160.99,-4.47 251.75,-17.83 362.73,-49.24 643.68,-182.14 1038.28,-620.96 1179.63,-1195.12 26.79,-119.77 34.05,-217.82 43.33,-343.68 h -206.1 c 18.65,-70.6 39.41,-137.42 58.07,-208.02 35.77,3.51 2.55,-3.21 144.97,16.11 0.5,-6.61 0,-16.7 0,-28.19 -55.5,-7.29 -90.21,-9.04 -145.71,-16.32 -19.62,-53.4 -47.01,-106.15 -42.32,-184.5 69.6,-13.2 118.43,-11.49 188.03,-24.7 0.01,-6.11 -0.01,-13.99 0,-20.13 -70.06,13.66 -119.33,10.67 -189.39,24.34 h -1.37 q -4.77,-83.37 -9.55,-166.73 c 73.69,-6.38 126.62,-12.32 200.31,-18.69 0.01,-6.1 -0.02,-18 0,-24.17 -73.7,6.38 -125.25,15.98 -198.95,22.36 -7.39,-9.92 -12.42,-78 -12.28,-95.66 77.78,-7.29 132.08,-16.25 209.85,-23.53 0.02,-6.09 -0.03,-21.28 0,-27.42 -3.97,-1.4 -112.43,21.91 -219.4,31.81 q -98.955,-83.355 -197.91,-166.72 127.6,-8.88 255.23,-17.77 c -21.45,-70.64 -57.69,-135.23 -85.98,-199.52 -92.8,-210.79 -225.24,-384.24 -358.98,-553.48 -61.59,-77.944 -133.03,-157.713 -210.19,-220.024 q -37.545,-34.843 -75.07,-69.7 c -64.74,-51.519 -128.38,-105 -196.55,-153.061 -190.34,-134.181 -400.77,-235.205 -636.05,-326.615 -123.13,-47.834 -259.04,-73.35 -398.55,-103.862 -138.12,-30.206 -268.82,-31.277 -444.96,-39.632 -0.46,309.734 -0.91,628.659 -1.37,938.394 274.32,160.33 548.72,311.61 823.04,471.95 7.3,17.18 -46.39,141.37 -51.86,173.56 -269.32,-171.27 -538.72,-333.49 -808.03,-504.75 q 8.865,-64.23 17.74,-128.46 V 26.4 c -116.35,-0.152 -214.13,-4.173 -315.29,12.3 q -101.67,10.249 -203.37,20.5 c -147.44,26.218 -291.56,41.59 -428.58,76.53 -272.14,69.39 -520.46,143.933 -754.8,246.456 -72.88,31.888 -146.91,61.771 -214.29,101.129 q -118.74,66.276 -237.49,132.562 -76.425,48.51 -152.87,97.03 c 11.37,53.747 22.74,89.315 34.12,143.061 q -22.515,11.614 -45.04,23.233 -46.41,-9.564 -92.82,-19.132 c -9.07,-23.276 -95.54,-253.735 -95.54,-255.556 l 117.38,-23.232 c 29.28,26.017 43.57,86.356 73.71,111.125 q 90.075,-56.709 180.16,-113.428 l 218.39,-120.261 c 162.12,-94.427 353.34,-156.587 537.78,-228.224 188.87,-73.363 397.69,-107.428 612.84,-154.894 q 103.035,-15.715 206.1,-31.432 c 114.08,-15.476 9.97,-6.153 113.49,-15.974 -1359.39,-0.328 -2397.87,0.45 -3757.231003,0 0,648.543 11,1878.7 11,1800.811 81.751003,-19.5 105.172003,-31.93 159.047003,-45.11 -3.914,46.81 -5.889,173.61 -8.188,221.39 -53.834,16.69 -94.979003,36.49 -149.116003,51.06 v 27.42 c -4,8.09 62.014003,-24.31 149.116003,-57.98 0.455,0.46 0.91,0.91 1.364,1.37 4.355,16.85 1.815,44.11 6.824,64.23 v 23.23 c -57.32,14.12 -99.984003,37.27 -157.300003,51.39 0,-15.33 0.836,39.21 0,18.27 54.594,-14.12 97.255003,-35.04 151.846003,-49.16 2.729,0.46 5.458,0.91 8.19,1.37 8.789,34.69 20.226,75.71 20.473,116.16 -65.055,15.03 -115.453,44.53 -180.509003,59.56 0,-29.38 0.508,39.53 0,18.28 C 104.688,2315.454 156.451,2288.174 220.14,2273.144 h 8.19 q 18.423,59.445 36.853,118.89 c -79.611,19.59 -144.574,46.79 -224.186003,66.38 0,-31.78 0.535,27.37 0,18.27 78.248003,-19.13 144.575003,-45.02 222.820003,-64.15 h 8.192 q 13.644,43.725 27.3,87.47 v 5.46 c -90.529,23.69 -160.952,47.38 -251.481003,71.06 -0.456,0 -6.37,0.68 -6.826,0.68 v 27.41 c 6.374,-0.06 10.6,-0.07 18.257,0 98.624003,45.15 180.292003,91.6 231.862003,115.41 -87.8,16.85 -182.45,32.22 -270.252003,49.07 0,-27.62 7.393,710.68 7.393,1459.3 1403.441003,0 2799.911003,1.55 4203.351003,1.55 V 1630.29 c -93.75,6.82 -191.99,28.91 -272.98,53.3 -40.49,11.84 -80.99,41.88 -121.48,53.73 -50.95,-8.66 -101.91,-35.51 -152.87,-44.17 q -17.73,-28.7 -35.48,-57.39 c 0,-0.46 -9.97,-42.86 -9.97,-43.32 m -3112.959,61.62 q -152.855,62.865 -305.741,125.73 -4.1,108.645 -8.19,217.29 176.738,-62.85 353.518,-125.72 -13.645,-77.22 -27.3,-154.43 c -4.015,-18.73 -1.767,-49.43 -12.287,-62.87 z m 268.887,-196.79 q -122.832,94.29 -245.684,188.59 12.964,75.165 25.934,150.33 c 4.176,19.54 1.438,51.47 12.284,65.6 q 157.63,-71.055 315.295,-142.13 -39.583,-99.06 -79.168,-198.16 c -6.652,-16.17 -13.639,-56.93 -28.661,-64.23 z M 1045.9,1332.91 q -113.955,55.35 -227.936,110.7 52.543,132.54 105.1,265.12 99.63,-58.08 199.28,-116.16 c 14.24,-8.54 65.37,-30.03 69.61,-43.73 q -70.965,-107.955 -141.95,-215.93 h -4.1 z m 199.28,-138.03 q -87.345,62.865 -174.71,125.73 68.925,108.645 137.86,217.29 c 16.08,-5.19 135.16,-119.88 148.77,-138.02 q -39.57,-73.11 -79.16,-146.23 c -10.319,-17.64 -16.599,-47.14 -32.759,-58.77 z m 207.47,-226.85 c -18.82,58.64 -91.67,137.83 -136.49,173.56 q -24.57,19.125 -49.14,38.26 l 110.56,206.36 c 72.2,-40.55 148.32,-86.09 195.18,-151.69 q -43.68,-99.075 -87.36,-198.16 c -7.759,-19.42 -14.699,-59.55 -32.749,-68.33 z m 255.23,-343.022 q -15,28.7 -30.02,57.4 -21.84,43.728 -43.68,87.465 -82.575,87.452 -165.15,174.92 58.68,133.92 117.38,267.86 c 17.59,-6.61 47.79,-64.55 60.05,-82 A 1968.341,1968.341 0 0 0 1800.7,872.367 c -8.639,-24.6 -92.359,-247.359 -92.819,-247.359 z M 1956.301,879.2 c -31.1,36.673 -91.61,3.523 -140.59,2.734 q -14.325,29.383 -28.66,58.759 c -37.53,73.39 -79.91,137.45 -125.57,202.26 -17.78,25.24 -50.21,56.13 -58.69,87.47 q 77.1,17.76 154.23,35.53 c 16.64,4.71 41.83,20.46 62.79,10.93 q 60.735,-88.815 121.47,-177.66 4.095,-60.12 8.19,-120.26 c 3.17,-19.643 13.41,-82.703 6.83,-99.763 z m 192.45,1388.47 q -151.485,-96.33 -303.01,-192.69 -104.4,124.35 -208.83,248.72 c -18.08,22.88 -74.12,73.5 -81.89,98.4 q 173.31,50.55 346.68,101.13 124.875,-125.04 249.78,-250.09 c -0.91,-1.82 -1.82,-3.65 -2.73,-5.47 z m 20.47,15.03 q -122.82,124.35 -245.68,248.73 l 177.44,77.89 q 210.18,91.56 420.39,183.13 98.955,-106.59 197.91,-213.19 c -7.39,-16.74 -89.55,-68.91 -109.19,-83.37 q -53.91,-40.995 -107.83,-81.99 -166.5,-65.595 -333.04,-131.2 z m 787.49,137.7 c -2.96,-15.54 -21.66,-68.85 -34.06,-76.2 q -72.33,-23.91 -144.68,-47.83 -32.745,3.42 -65.51,6.83 c -69.65,11.72 -152.35,10.9 -223.85,21.87 q -72.33,2.055 -144.68,4.1 c 0.46,0.91 0.91,1.82 1.37,2.73 q 82.56,32.115 165.15,64.23 c 12.74,10.48 42.45,31.99 55.19,42.47 m 254.65,-1437.56 c 8.64,36.44 17.29,76.27 25.93,112.71 l 38.22,30.06 q 32.745,25.29 65.51,50.57 c 41.87,23.54 111.22,53.05 163.79,62.83 q 47.085,4.1 94.18,8.2 183.57,64.9 367.16,129.82 191.07,27.33 382.18,54.67 c 105.99,30.06 230.21,60.13 336.21,90.19 l -12.28,-13.66 c -37.31,-41.91 -92.81,-111.12 -130.12,-153.02 -63.23,-24.6 -127.09,-47.69 -189.72,-73.8 -53.72,-22.4 -120.48,-51.72 -204.3,-89.3 m 0,0 c -50.05,-26.88 -130.56,-66.95 -180.6,-93.83 q -38.895,-21.855 -77.8,-43.73 -88.035,-23.91 -176.08,-47.83 c -130.74,-40.95 -271.09,-83.31 -439.5,-83.36 -20.51,20.09 -20.92,20.12 -62.78,59.48 m 165.15,-181.112 q 32.07,28.014 64.15,56.031 c 126.97,101.871 282.52,112.3 444.96,176.291 q 14.325,-94.29 28.66,-188.591 L 2989.541,702.4 c -1.58,24.1 -17.02,94.347 -4.1,117.528 z m 92.81,-185.858 c -23.98,16.278 -71.2,20.558 -80.52,50.564 l 526.85,159.894 q 1.365,-0.686 2.73,-1.368 2.055,-58.074 4.09,-116.162 -226.54,-46.46 -453.15,-92.928 z m 440.87,430.48 q 105.09,55.35 210.2,110.7 c 86.17,50.24 186.61,82.41 282.53,122.99 q 70.98,28.695 141.95,57.4 13.65,-92.235 27.3,-184.49 c 2.64,-13.59 11.11,-50.62 2.73,-57.4 q -319.35,-120.255 -638.78,-240.523 c -8.12,28.933 -36.88,168.443 -25.93,191.323 z m 692.01,-120.26 q -124.2,-43.725 -248.41,-87.463 l -409.48,-122.995 q -2.73,59.442 -5.46,118.894 322.77,121.611 645.61,243.254 c 6.35,-23.23 22.62,-131.56 17.74,-151.69 z m 791.65,679.67 c -264.77,-168.07 -529.61,-327.1 -794.38,-495.18 q -12.96,84.72 -25.93,169.46 c -3.79,18.36 -15.85,48.18 -8.19,69.7 q 22.515,24.6 45.04,49.2 c 23.84,29.65 66.61,83.98 93.26,110.65 66.29,66.37 127.52,85.64 202.92,142.64 l 208.84,163.99 q 140.565,-103.17 281.17,-206.36 c -0.91,-1.37 -1.82,-2.73 -2.73,-4.1 z m -260.7,221.39 c 6.73,20.48 57.44,56.87 75.07,71.07 67.13,54.06 123.09,121.75 193.82,172.19 q 175.365,-148.26 350.78,-296.56 c -0.46,-0.91 -0.91,-1.82 -1.37,-2.73 q -167.175,-75.84 -334.4,-151.69 z m 297.55,-225.49 q 120.78,55.35 241.59,110.7 c 22.46,9.91 72.66,42.51 94.18,42.36 q 27.975,-119.565 55.96,-239.15 -167.19,-42.36 -334.4,-84.73 -28.665,85.395 -57.33,170.82 z m 35.49,-206.36 v -5.46 q -22.515,-100.44 -45.04,-200.89 -255.225,-58.77 -510.48,-117.53 277.725,161.925 555.52,323.88 z M 0.06099701,0 H 6850.061 V 4258.52 H 0.68999701 Z"
     style="fill:#ffffff;fill-opacity:1" />
</svg>
