<svg xmlns="http://www.w3.org/2000/svg" width="1498" height="235" viewBox="0 0 1498 235">
  <defs>
    <style>
      .cls-1 {
        fill: #fff;
        fill-rule: evenodd;
      }
    </style>
  </defs>
  <path id="Ascend_Horizon_Advance" data-name="Ascend • Horizon • Advance" class="cls-1" d="M202.8,190.19c-22.832-9.167-37.532-14.841-43.193-23.827-11.39-18.081-16.9-80.444-20.925-117.087-1.943-18.567-5.1-44.1-1.913-44.244,5.537-.242,7.49,6.212,16.384,21.842,77.873,136.85,104.922,176.056,99.79,181.188C250.717,210.285,226.719,199.794,202.8,190.19Zm-141.544,0c22.871-9.167,37.6-14.841,43.266-23.827,11.41-18.081,16.927-80.444,20.961-117.087,1.946-18.567,5.112-44.1,1.916-44.244-5.546-.242-7.5,6.212-16.411,21.842C32.981,163.723,5.885,202.929,11.026,208.061,13.254,210.285,37.293,199.794,61.255,190.19Zm69.47,0.766c-12.764,0-36.649,8.467-68.621,17.4C35.41,216.448.445,225.783,0.445,232.217c0,2.716,1.5,2.486,3.978,2.486,10.386,0,68.673-.017,126.3,0m0-43.747c12.765,0,36.65,8.467,68.621,17.4,26.695,8.093,61.66,17.428,61.66,23.862,0,2.716-1.5,2.486-3.978,2.486-10.386,0-68.673-.017-126.3,0M421.8,0.5L356.53,140.793h21.211L391,111.43h0.07l30.729-67.7,30.728,67.7H452.6l13.256,29.363h21.213Zm127.267,140.29h19.581V39.807l-19.581-19.68V140.793ZM643.7,3.766v93.8L549.065,0.5v27L663.284,144.056V3.766H643.7ZM816.455,22.993V3.766H725.079V22.993h91.376Zm-35.9,117.8V18.953H760.978v121.84h19.579ZM964.31,82.067V62.491H896.191V82.067H964.31Zm-86.128,58.726h19.581V3.766H878.182V140.793ZM963.03,3.766V62.491h-0.291V82.067h0.291v58.726h19.581V3.766H963.03ZM1110.43,0.5l-65.27,140.29h21.22l13.25-29.363h0.07l30.73-67.7,30.73,67.7h0.07l13.26,29.363h21.21Zm127.71,140.29h19.58V3.766h-19.58V140.793Zm75.06,0V121.217h-57.34v19.576h57.34ZM1428.75,0.5l-65.26,140.29h21.21l13.26-29.363h0.07l30.72-67.7,30.73,67.7h0.07l13.26,29.363h21.21ZM347.537,234.04l4.231-11.9h20.1l4.3,11.9h6.81l-17.521-47.809h-7.206L340.793,234.04h6.744Zm13.488-37.493a27.7,27.7,0,0,0,.793-2.777,20.423,20.423,0,0,0,.793,2.777l7.339,19.97h-16.2Zm32.135,2.579c0,6.877,4.033,11.373,11.835,13.159l7.867,1.785c4.562,1.058,6.612,3.439,6.612,7.208,0,4.761-4.033,7.736-10.38,7.736-6.017,0-9.851-2.909-9.984-7.472H392.5c0.4,8.2,6.876,13.291,16.595,13.291,10.182,0,16.859-5.488,16.859-14.084,0-6.745-3.967-10.977-11.768-12.762l-7.868-1.852c-4.5-1.058-6.678-3.372-6.678-7.208,0-4.694,3.9-7.736,9.918-7.736,5.355,0,8.727,2.777,9.057,7.538h6.546c-0.529-8.266-6.413-13.357-15.537-13.357C399.771,185.372,393.16,190.926,393.16,199.126Zm67.375,35.641c10.777,0,19.3-6.348,21.355-15.87h-6.876c-1.785,5.885-7.339,9.654-14.347,9.654-9.653,0-16-7.273-16-18.448s6.347-18.449,16-18.449c6.942,0,12.3,3.769,14.083,9.985h6.942c-1.785-9.787-10.05-16.2-20.827-16.2-13.686,0-23.008,9.985-23.008,24.731C437.857,224.981,446.915,234.767,460.535,234.767Zm65.061-.727v-6.018H502.918V212.88h20.43v-5.753h-20.43V192.183H525.6v-5.952H496.439V234.04H525.6Zm22.482,0V197.076l24.463,36.964h6.479V186.231h-6.479V223.2l-24.463-36.964H541.6V234.04h6.479Zm64.467,0c14.148,0,23.669-9.654,23.669-23.871,0-14.283-9.653-23.938-23.934-23.938H596.743V234.04h15.8Zm-0.728-41.857c10.909,0,17.653,6.877,17.653,17.986,0,10.976-6.744,17.853-17.388,17.853h-8.86V192.183h8.6Zm71.741,33.856a9.655,9.655,0,0,0,0-19.309,9.925,9.925,0,0,0-9.785,9.721A9.81,9.81,0,0,0,683.558,226.039Zm56.6,8V212.814h23.67V234.04h6.479V186.231h-6.479V206.8h-23.67V186.231h-6.479V234.04h6.479ZM831.135,210.1c0-14.548-9.454-24.731-23.008-24.731-13.488,0-22.942,10.249-22.942,24.731,0,14.547,9.388,24.73,22.876,24.73C821.615,234.833,831.135,224.65,831.135,210.1Zm-6.81,0c0,11.042-6.479,18.515-16.2,18.515S792,221.212,792,210.1s6.413-18.449,16.132-18.449S824.325,198.994,824.325,210.1Zm28.169,23.937V215.128h12.232l8.925,18.912h7.207l-9.719-20.168c5.95-1.918,9.256-6.679,9.256-13.291,0-8.927-6.083-14.35-16.331-14.35H846.015V234.04h6.479Zm0-41.99h11.57c5.951,0,9.521,3.042,9.521,8.6,0,5.488-3.438,8.728-9.454,8.728H852.494V192.05Zm49.855-5.819h-6.48V234.04h6.48V186.231Zm48.4,47.809v-6.018H924.829l25.852-35.972v-5.819H917.358v5.952h25.257l-25.653,35.839v6.018h33.785ZM1007.54,210.1c0-14.548-9.452-24.731-23-24.731-13.488,0-22.942,10.249-22.942,24.731,0,14.547,9.388,24.73,22.876,24.73C998.022,234.833,1007.54,224.65,1007.54,210.1Zm-6.81,0c0,11.042-6.476,18.515-16.2,18.515S968.4,221.212,968.4,210.1s6.414-18.449,16.133-18.449S1000.73,198.994,1000.73,210.1Zm28.17,23.937V197.076l24.46,36.964h6.48V186.231h-6.48V223.2l-24.46-36.964h-6.48V234.04h6.48Zm81.13-8a9.655,9.655,0,0,0,0-19.309,9.919,9.919,0,0,0-9.78,9.721A9.805,9.805,0,0,0,1110.03,226.039Zm52.1,8,4.24-11.9h20.09l4.3,11.9h6.81l-17.52-47.809h-7.21l-17.45,47.809h6.74Zm13.49-37.493a27.058,27.058,0,0,0,.79-2.777,21.773,21.773,0,0,0,.8,2.777l7.34,19.97h-16.2Zm50.72,37.493c14.14,0,23.66-9.654,23.66-23.871,0-14.283-9.65-23.938-23.93-23.938h-15.54V234.04h15.81Zm-0.73-41.857c10.91,0,17.65,6.877,17.65,17.986,0,10.976-6.74,17.853-17.39,17.853h-8.86V192.183h8.6Zm50.45,41.857h6.74l17.99-47.809h-6.75l-11.57,30.484c-0.79,2.116-1.92,5.29-3.04,9.059a88.5,88.5,0,0,0-2.98-8.993l-11.63-30.55h-6.94Zm33.06,0,4.23-11.9h20.1l4.3,11.9h6.81l-17.52-47.809h-7.21l-17.46,47.809h6.75Zm13.49-37.493a27.058,27.058,0,0,0,.79-2.777,20.091,20.091,0,0,0,.79,2.777l7.34,19.97h-16.2ZM1364,234.04V197.076l24.46,36.964h6.48V186.231h-6.48V223.2L1364,186.231h-6.48V234.04H1364Zm68.5,0.727c10.77,0,19.3-6.348,21.35-15.87h-6.87c-1.79,5.885-7.34,9.654-14.35,9.654-9.65,0-16-7.273-16-18.448s6.35-18.449,16-18.449c6.94,0,12.3,3.769,14.08,9.985h6.94c-1.78-9.787-10.05-16.2-20.82-16.2-13.69,0-23.01,9.985-23.01,24.731C1409.82,224.981,1418.88,234.767,1432.5,234.767Zm65.06-.727v-6.018h-22.68V212.88h20.43v-5.753h-20.43V192.183h22.68v-5.952H1468.4V234.04h29.16Z"/>
</svg>
