<svg width="182" height="38" viewBox="0 0 182 38" fill="none" xmlns="http://www.w3.org/2000/svg">
<path fill-rule="evenodd" clip-rule="evenodd" d="M68.8567 37.8121H67.6764V29.9238H68.8567V37.8121ZM83.4324 29.9237H84.6128V37.9999L77.7278 31.29V29.736L83.4324 35.3236V29.9238V29.9237ZM78.9081 37.8121H77.7278V32.2416L78.9081 33.3746V37.8121ZM67.7155 24.9415V0.833891C67.7155 0.778883 67.7269 0.724423 67.7489 0.673621C67.771 0.622819 67.8033 0.576669 67.844 0.537806C67.8847 0.498943 67.933 0.468129 67.9862 0.447122C68.0394 0.426116 68.0963 0.415328 68.1538 0.415376H84.7783V4.43329H76.7455C76.2808 4.43294 75.835 4.60912 75.5061 4.92309C75.1773 5.23706 74.9923 5.66309 74.9919 6.10747V19.7521H74.9965C75.0191 20.1811 75.2133 20.5853 75.5388 20.8812C75.8643 21.1771 76.2963 21.3421 76.7455 21.342H84.7783V25.3599H68.1538C68.0377 25.36 67.9263 25.316 67.8441 25.2375C67.7618 25.159 67.7156 25.0526 67.7155 24.9415ZM91.2309 0.417187C98.2548 0.495794 103.924 6.04831 103.924 12.8876C103.924 19.727 98.2548 25.2796 91.2309 25.3582C91.2243 25.3582 91.2182 25.36 91.2115 25.36H85.6939V21.342H85.7755V21.3411C85.7901 21.3411 85.8046 21.342 85.8193 21.342C91.7023 21.342 96.4714 17.5567 96.4714 12.8875C96.4714 8.21828 91.7023 4.43317 85.8193 4.43317C85.8046 4.43317 85.7901 4.43402 85.7755 4.43402V4.43329H85.6939V0.415255H91.2115C91.2182 0.415255 91.2243 0.416825 91.2309 0.417187ZM99.1932 29.9238H100.373V38L93.4884 31.2901V29.736L99.1932 35.3236V29.9238ZM94.6689 37.8121H93.4884V32.2416L94.6689 33.3746V37.8121ZM104.236 6.16567C107.702 2.55142 113.812 0.116643 120.812 0.00229422V3.85756C114.393 4.06863 109.272 8.19848 109.272 13.2639C109.272 18.3293 114.393 22.4596 120.812 22.6702V26.1068C113.73 25.9913 107.557 23.5023 104.113 19.8184C105.347 17.7408 106.006 15.3965 106.027 13.0073C106.049 10.6181 105.432 8.26321 104.236 6.16567ZM112.757 29.8437V30.9744C112.011 31.0525 111.322 31.391 110.822 31.925C110.321 32.4589 110.045 33.1508 110.045 33.8679C110.045 34.585 110.321 35.2769 110.822 35.8109C111.322 36.3448 112.011 36.6834 112.757 36.7615V37.8922C111.697 37.813 110.708 37.3548 109.987 36.6088C109.265 35.8628 108.865 34.8841 108.865 33.8679C108.865 32.8518 109.265 31.873 109.987 31.1271C110.708 30.3811 111.697 29.9228 112.757 29.8437ZM117.323 33.8679C117.322 34.8838 116.921 35.8622 116.2 36.6081C115.478 37.3539 114.489 37.8124 113.43 37.8922V36.7616C114.176 36.6835 114.865 36.345 115.365 35.811C115.866 35.277 116.143 34.5851 116.143 33.868C116.143 33.1509 115.866 32.4591 115.365 31.9251C114.865 31.3911 114.176 31.0526 113.43 30.9745V29.8438C114.489 29.9236 115.478 30.382 116.2 31.1278C116.921 31.8736 117.322 32.8519 117.323 33.8679ZM141.447 13.0551C141.447 20.18 132.656 25.9714 121.728 26.1101V22.6735C128.2 22.5079 133.382 18.3602 133.382 13.2644C133.382 8.16853 128.2 4.02081 121.728 3.85527V0C132.656 0.138499 141.447 5.93021 141.447 13.0551ZM128.389 35.347L128.392 35.3418L128.999 36.6806L128.389 38L124.652 29.9238H125.93L128.389 35.347ZM130.847 29.9238H132.127L129.358 35.9077L128.744 34.5653L130.847 29.9238ZM146.21 37.8121H144.931L144.131 36.1216H144.128L142.275 32.2243L140.423 36.1216H140.418L139.619 37.8121H138.341L142.275 29.7358L146.21 37.8121ZM157.964 31.0305H152.455V29.9237H157.964V31.0305ZM155.799 37.8121H154.619V31.6737H155.799V37.8121ZM163.297 0.417187C170.321 0.495794 175.99 6.04831 175.99 12.8876C175.99 19.727 170.321 25.2796 163.297 25.3582C163.29 25.3582 163.284 25.36 163.278 25.36H158.371V21.3323C164.029 21.1307 168.538 17.4275 168.538 12.8876C168.538 8.34772 164.029 4.64472 158.371 4.44295V0.415255H163.278C163.284 0.415255 163.29 0.416825 163.297 0.417187ZM167.245 37.8121H166.064V29.9238H167.245V37.8121ZM173.798 2.70405V1.69616C173.798 1.54989 173.828 1.40508 173.887 1.26998C173.946 1.13489 174.031 1.01216 174.14 0.908811C174.248 0.80546 174.376 0.723511 174.518 0.667645C174.659 0.611779 174.81 0.58309 174.963 0.583217H180.788C181.097 0.583216 181.393 0.700461 181.611 0.909168C181.829 1.11787 181.952 1.40095 181.952 1.69616V24.3309C181.952 24.6261 181.829 24.9091 181.611 25.1178C181.393 25.3265 181.097 25.4437 180.788 25.4437H174.963C174.81 25.4438 174.659 25.4152 174.518 25.3593C174.376 25.3035 174.248 25.2215 174.14 25.1182C174.031 25.0148 173.946 24.8921 173.887 24.757C173.828 24.6219 173.798 24.4771 173.798 24.3309V22.4851C176.182 20.3183 177.744 16.6976 177.744 12.5947C177.744 8.49178 176.182 4.87113 173.798 2.70417V2.70405ZM178.902 36.7794C180.143 36.7794 180.819 36.2982 180.819 35.5469C180.819 34.9129 180.069 34.5256 178.938 34.3378C176.639 33.962 175.987 33.1756 175.987 32.1192C175.987 30.8392 177.033 29.83 178.963 29.83C179.307 29.83 180.61 29.8653 181.631 30.7691L181.066 31.7904C180.788 31.5218 180.456 31.3097 180.091 31.1665C179.725 31.0234 179.333 30.9522 178.938 30.9572C177.807 30.9572 177.168 31.3678 177.168 32.0724C177.168 32.6828 177.734 32.9645 179.037 33.211C181.004 33.5749 182 34.1737 182 35.5C182 36.8734 180.807 37.9065 178.876 37.9065C176.885 37.9065 175.827 36.7679 175.705 36.6266L176.294 35.6171C176.62 35.9737 177.021 36.2612 177.47 36.4612C177.919 36.6613 178.406 36.7696 178.902 36.7791V36.7794ZM61.557 15.1035C61.4414 14.656 61.1881 14.2299 61.0036 13.8277C60.4338 12.5764 59.7343 11.3829 58.9157 10.265C55.9036 6.17062 51.858 2.98286 46.3258 1.30976C45.0066 0.911291 43.6162 0.693943 42.1118 0.431435C43.8327 0.416583 38.185 0.455585 62.8616 0.459208C62.8616 5.37127 62.8652 10.2036 62.8616 15.1074C62.3632 15.1394 62.0559 15.0714 61.557 15.1035ZM44.7284 23.4206V26.261L43.9989 26.9592C43.8605 27.4566 43.7222 27.9541 43.5839 28.4517H39.3704C39.3644 27.7837 39.5103 27.1225 39.798 26.5139C40.2108 25.5918 40.8986 24.8065 41.7756 24.2563C42.6525 23.7061 43.6796 23.4154 44.7284 23.4206ZM39.1566 23.2515L44.263 23.2636C43.612 23.255 43.0004 23.4889 42.5273 23.6849C41.1902 24.2393 40.172 25.1616 39.5968 26.4411C39.4489 26.7914 39.3352 27.1541 39.2573 27.5244C39.232 27.7089 39.2068 27.8935 39.1815 28.0781C39.1733 26.4697 39.1652 24.861 39.1573 23.252L39.1566 23.2515ZM39.1945 29.1373C39.1754 30.2226 39.5271 31.2183 39.8737 32.0018C40.8627 34.2381 42.5344 35.8825 44.8921 36.8043C45.4748 37.0173 46.0769 37.1784 46.6906 37.2858C47.0344 37.322 47.4152 37.4153 47.759 37.4514C44.9167 37.4514 42.0367 37.465 39.1945 37.465V29.1378V29.1373ZM53.9101 36.2988C57.8136 34.7089 60.5738 31.9682 62.1483 28.1503C62.5034 27.2892 62.666 26.4174 62.8622 25.4989C62.8569 25.9094 62.8622 28.7998 62.8622 37.4685C58.0958 37.4645 53.5644 37.4554 48.798 37.4514C50.666 37.4869 52.5862 36.8384 53.91 36.2993L53.9101 36.2988ZM139.782 24.9415V20.9421C142.106 18.6841 143.464 15.9728 143.464 13.0551C143.464 10.1375 142.106 7.42569 139.782 5.16805V0.833891C139.782 0.722869 139.828 0.616456 139.91 0.537997C139.992 0.459538 140.104 0.41544 140.22 0.415376H157.456V4.43329H148.812C148.347 4.43291 147.901 4.60907 147.573 4.92304C147.244 5.23701 147.059 5.66306 147.058 6.10747V19.7521H147.063C147.086 20.181 147.28 20.5852 147.605 20.8812C147.931 21.1771 148.363 21.3421 148.812 21.342H157.456V25.3599H140.22C140.104 25.3598 139.993 25.3158 139.91 25.2373C139.828 25.1589 139.782 25.0525 139.782 24.9415ZM44.7158 29.21L43.8858 28.9091L43.4455 29.0298C43.4792 29.5673 43.5128 30.1049 43.5465 30.6427L44.125 31.6176L45.2193 31.5572L44.8546 29.812C44.8144 29.6495 44.8264 29.3165 44.7158 29.21ZM47.3445 26.5018L44.9296 29.1739C45.0806 29.916 45.2316 30.6582 45.3825 31.4005C45.5498 31.3449 46.1382 30.4457 46.3005 30.2571L47.093 29.8358L48.0489 28.921C47.8769 28.3233 47.705 27.7255 47.5332 27.1277C47.4816 26.9639 47.4672 26.6066 47.3445 26.5018ZM46.5647 10.8908L46.9923 12.8046L50.011 13.5268C49.8181 13.1056 49.6252 12.6843 49.4323 12.263C49.2893 11.9491 49.191 11.5659 49.0047 11.2881L46.5647 10.8908ZM55.4822 14.2249L49.2688 11.3843C49.5958 12.1185 49.9229 12.8527 50.2499 13.5869L55.8343 15.9701C55.7462 15.5369 55.6581 15.1036 55.5702 14.6703C55.5386 14.5292 55.5742 14.3086 55.4822 14.2249ZM49.7216 15.9219L55.6079 17.8237L55.8594 16.1867L50.2625 13.7916C50.0822 14.5017 49.9019 15.2118 49.7216 15.9219ZM60.4628 16.6802L58.7145 15.26L55.7211 14.3091C55.8343 14.8909 55.9475 15.4726 56.0607 16.0544L60.4628 16.6923V16.6802ZM60.6892 16.9089L56.0607 16.2349L56.0481 16.247L55.8091 17.8478L56.589 17.7753C57.2852 17.6841 57.9902 17.6719 58.6894 17.7391L60.815 17.7512C60.8189 17.6061 60.753 16.9546 60.6892 16.9089ZM60.9156 19.2199C60.8862 18.7947 60.8568 18.3694 60.8272 17.9441L56.9659 17.92L55.8087 18.0407C56.0519 18.8751 56.2951 19.7096 56.5382 20.5442H56.5761L60.9154 19.473V19.2203L60.9156 19.2199ZM60.9156 19.6411L56.6266 20.7003C56.8363 21.1336 57.0459 21.5669 57.2555 22.0003L61.0036 20.5438C60.9743 20.2431 60.945 19.9422 60.9156 19.6411ZM60.802 23.2877C60.802 22.6126 61.7429 21.2507 61.041 20.712L57.3432 22.1684C57.4145 22.7942 57.4857 23.4201 57.557 24.046L60.802 23.2877ZM52.4506 26.1283H52.4633L53.3941 25.8515L54.7398 25.4663L56.1988 24.696L57.3685 24.0942C57.314 23.6528 57.2595 23.2115 57.205 22.7702C57.1707 22.5659 57.2131 22.3793 57.1293 22.2406H57.0914L54.3999 22.8545L51.4567 23.9738C51.4923 24.0717 52.071 24.3902 52.1987 24.4312C52.1987 24.8357 52.325 25.1997 52.4 25.5626L52.4506 26.1283ZM50.3753 27.0551L52.2367 26.2126C52.2523 25.6423 52.1716 25.0732 51.9977 24.5275L51.1928 24.0942L49.7212 25.1173C49.9395 25.7635 50.1576 26.4095 50.3756 27.0555L50.3753 27.0551ZM47.5202 23.5285C47.5076 23.7091 47.495 23.8896 47.4823 24.0702L49.6205 24.9729L51.0423 23.9743H51.017L48.8289 22.7946L47.5202 23.5285ZM48.9792 22.6619L50.5765 23.5045C50.7659 23.6121 50.9607 23.8298 51.2054 23.8655C51.3506 23.8868 51.5575 23.7419 51.6708 23.6965L52.8657 23.2392L54.3749 22.6735L57.0791 22.0717C57.0445 21.9077 56.506 20.8607 56.3998 20.7597H56.3115L54.6135 20.9764L50.9535 21.5421C50.5336 21.6216 49.5814 21.6484 49.2807 21.8188L48.9792 22.6619ZM49.2559 21.6027L53.2556 20.9768C54.2802 20.7944 55.402 20.8536 56.349 20.5796V20.5675C56.0975 19.7169 55.8459 18.8664 55.5943 18.0158L49.5958 16.0665L46.313 18.7384C47.2941 19.6933 48.2752 20.6482 49.2563 21.603L49.2559 21.6027ZM38.0558 13.5947C37.6198 13.4861 36.9006 13.2929 36.4648 13.1849L33.6098 14.1358C33.5972 14.2324 33.543 14.1394 33.5305 14.2358M28.5858 12.5529C28.649 12.6653 28.7549 12.8921 28.8178 13.0044C29.2244 13.6703 29.6048 13.5198 30.5158 13.6544L31.9873 13.7872L34.2387 13.378C34.5515 13.3133 35.7006 13.2172 35.8737 13.0892L32.9306 12.6919C32.5519 12.5992 32.5435 12.5582 31.7706 12.3131M31.7706 12.3131C31.3588 12.1463 30.9353 12.0075 30.5031 11.8976C29.9928 11.9347 29.3722 11.8527 28.9813 12.0184C28.8694 12.0631 28.773 12.137 28.703 12.2317C28.6331 12.3264 28.5925 12.4381 28.5858 12.5539M32.7762 24.8944C32.793 24.7339 32.8259 24.5569 32.8425 24.3964L32.4779 23.8548L31.0565 23.4937L29.3214 23.0116L25.1582 22.7348C25.335 22.9865 25.8408 23.1059 26.1519 23.2283C26.5333 23.4047 27.3669 23.7557 27.7484 23.9323M23.6414 21.6885C23.8971 21.873 24.2607 22.129 24.5164 22.3135L26.5665 21.9404C26.8978 21.8713 27.2083 21.8911 27.2451 21.5283M29.1194 24.7809L26.8177 23.7458L25.2078 23.0116L23.3966 24.9134L29.1573 27.441C29.6351 27.0237 30.113 26.6064 30.5911 26.1892C30.3495 25.8928 30.0707 25.626 29.761 25.3948L29.1194 24.7809ZM27.7476 23.9323C27.9404 24.0204 28.1468 24.1269 28.3396 24.2152L29.2201 24.6486L30.3142 24.9856L31.2073 25.3105C31.4105 25.356 32.4798 25.2928 32.6034 25.226C32.6412 25.1777 32.679 25.1294 32.717 25.0811C32.717 25.069 32.7765 24.9052 32.7765 24.8931M36.632 29.1409C36.6246 28.8534 36.6499 28.323 36.5032 28.1387L35.8114 27.6212L34.7801 26.8027L32.1892 25.8518C31.4126 25.5379 30.4814 25.1062 29.5856 24.9612C29.77 25.1336 29.9545 25.3061 30.139 25.4787L30.8308 26.1527C31.5424 26.684 31.8861 26.8476 32.693 27.2974M32.693 27.2974C33.0452 27.7507 33.6608 28.4918 34.013 28.945L36.0882 29.6672L36.5536 29.3062C36.5493 29.2981 36.6362 29.1485 36.632 29.1405M35.0316 30.3774L32.5411 27.3688L31.7487 26.9114C31.5214 26.7752 30.9632 26.3511 30.7174 26.3096C30.2478 26.7187 29.7782 27.1279 29.3087 27.5372C29.3534 27.6864 30.431 28.417 30.6293 28.5603L33.4467 30.6667L34.2516 31.2685C34.3652 31.3505 34.47 31.4887 34.6164 31.5333C34.7546 31.1481 34.8928 30.7629 35.0311 30.3777L35.0316 30.3774ZM28.7052 29.1979L29.812 29.8959C30.7144 30.4658 31.5156 31.042 32.6043 31.4366C33.2616 31.6749 33.7743 32.1067 34.4154 31.6653C34.3877 31.5158 34.1726 31.4305 34.0632 31.3523L33.0948 30.6302L29.1952 27.7054C29.1058 27.9219 28.6449 29.0554 28.7047 29.1983L28.7052 29.1979ZM24.4918 27.5128L28.504 29.0775L29.0322 27.597L23.3221 25.0695C23.2989 25.6053 23.1749 26.0926 23.1706 26.6943L24.4918 27.5128ZM23.1333 24.9612L17.637 22.6742L17.3855 24.2872L22.97 26.574V26.5499C23.0241 26.0207 23.0784 25.4912 23.1328 24.9615L23.1333 24.9612ZM2.05315 18.9434V19.0159L2.22928 20.0028L4.92094 19.3408C5.06803 19.3021 5.63684 19.2201 5.6756 19.1242L5.38634 17.9687H5.37371L2.05315 18.9434ZM5.36121 17.7999C5.36003 17.4911 5.3176 17.1838 5.23495 16.8853L5.18444 16.8732L1.96476 17.9805L2.01527 18.7628L5.36121 17.7999ZM10.0526 22.7107C10.1498 22.7975 10.4188 22.7778 10.5683 22.8073L11.8135 23.0118V22.9877C11.8344 22.386 11.8555 21.7842 11.8766 21.1822L9.95222 20.9656C9.97748 21.415 10.0027 21.8643 10.028 22.3136C10.0511 22.4659 9.9824 22.6048 10.0524 22.7107H10.0526ZM11.9141 20.9895C11.9937 20.1792 12.0734 19.3688 12.1531 18.5582L9.48632 18.7869L9.92647 20.785L11.9141 20.9895ZM12.0277 23.0477H12.053L13.8641 23.5292C13.8767 23.3767 13.8893 23.2242 13.902 23.0718C13.9377 22.8704 14.0609 21.6899 13.9903 21.6395L12.0786 21.2182C12.061 21.828 12.0438 22.4378 12.027 23.0477H12.0277ZM12.053 15.9705L9.19794 16.9333C9.16006 17.0763 9.23215 17.2997 9.26107 17.4389L9.42521 18.6064L12.1671 18.3656L12.0914 16.5842C12.0614 16.4067 12.1459 16.0967 12.0522 15.9705H12.053ZM9.2348 18.6425L8.98329 17.0055L5.58684 17.8963L5.85098 19.1119L9.2348 18.6425ZM5.91411 19.2924L6.29126 20.6886L9.72483 20.7731L9.28468 18.8233H9.14579L5.91411 19.2924ZM9.76346 20.9534L6.37964 20.8689L6.99592 22.2772L9.85096 22.7104L9.76346 20.9534ZM6.32914 21.2664C6.26386 21.1186 6.266 20.9231 6.09012 20.8812L2.69367 21.4229V21.4591C2.78172 21.7238 2.86977 21.9886 2.95781 22.2535L6.79391 22.2777L6.32914 21.2664ZM6.10275 20.7007V20.6524C6.03305 20.4384 5.79732 19.3559 5.62485 19.3405L2.29153 20.171L2.64367 21.2422L6.10275 20.7007ZM5.56197 17.7398L8.93316 16.825C8.89756 16.6174 8.48556 15.5923 8.35463 15.5252L5.43646 16.7768L5.56197 17.7398ZM9.14655 16.7889L12.0142 15.814L11.3602 14.5622C11.2718 14.397 11.2071 14.1556 11.0709 14.0326L8.56827 15.4529L9.14655 16.7889ZM12.2028 15.7538L14.8566 15.152C14.8609 14.5262 14.8651 13.9004 14.8692 13.2744L12.6432 12.6722L11.2598 13.9123L12.2028 15.7538ZM12.882 12.5522L14.9825 13.1179L16.5675 11.6495V11.6374L14.618 11.2042L13.6496 12.0708L12.8823 12.5401V12.5522H12.882ZM14.8819 15.3205L12.2657 15.9102C12.2951 16.7247 12.3246 17.5392 12.3541 18.3536L16.8317 18.2811V18.269L16.8065 18.2449C15.6151 16.417 14.9163 15.3353 14.8821 15.3205H14.8819ZM16.1396 18.4499L12.3286 18.5465C12.2697 19.1523 12.211 19.7581 12.1525 20.364C12.1023 20.5853 12.0853 20.8122 12.102 21.0381L14.1143 21.4834L16.7807 18.4503H16.1397L16.1396 18.4499ZM14.0643 23.5894L17.1956 24.2152C17.25 23.8381 17.3045 23.461 17.3591 23.0839C17.3877 22.9449 17.4572 22.733 17.4223 22.5904L14.2278 21.7117C14.1735 22.3376 14.119 22.9635 14.0646 23.5894H14.0643ZM18.1268 26.0928L22.378 26.5383L17.4603 24.5161L17.9255 25.6356C17.9831 25.7689 18.0182 26.0057 18.1271 26.0928H18.1268ZM17.9004 26.0687C17.7327 25.6796 17.5651 25.2905 17.3974 24.9012C17.3343 24.746 17.3216 24.4906 17.1835 24.4077L14.165 23.7818L15.5233 25.8882L17.9004 26.0687ZM15.2214 25.828V25.816C14.7687 25.1179 14.3159 24.4198 13.8631 23.7217L12.1528 23.2764L13.6747 25.443L15.2214 25.828ZM13.3725 25.3345L13.3473 25.2983L11.8761 23.1922L10.1907 22.9394L11.7377 24.9013L13.3725 25.3345ZM11.4104 24.7929L11.3978 24.7566L9.88846 22.879L7.24719 22.4938L8.01435 23.24L9.08342 24.2752L11.4104 24.7929ZM8.7569 24.24L6.90805 22.4459L3.22284 22.4217C3.33647 22.602 3.81879 22.8311 4.01526 22.9634L5.24783 23.8059L8.7569 24.24ZM4.19127 23.9381L4.95856 23.8173L3.43673 22.8303C3.26286 22.702 3.06084 22.455 2.79531 22.4332L0.568937 23.0116L0.581563 23.0357L3.00844 24.1313L4.19127 23.9381ZM38.0561 13.5947C38.2616 13.6551 38.5864 13.7506 38.7919 13.8109C39.283 13.9495 39.8326 14.0178 40.1251 14.3766V14.3887L39.1691 14.5336C39.165 17.4821 39.1608 20.1111 39.1565 23.0598H47.5331L47.4826 21.6154L46.4387 19.1599L49.1177 21.7116C49.0087 22.0205 48.8997 22.3295 48.7907 22.6385L47.5455 23.3125L47.5328 23.2521H45.2437L45.8349 23.3849C46.3824 23.5681 46.912 23.8811 47.231 24.2876L47.3572 24.2152L49.3445 25.0697V25.0818L48.9546 25.2146L48.2879 25.5397C48.0108 25.7025 47.6805 26.0489 47.4201 26.1655C47.3219 26.2189 47.0464 26.0441 46.9422 25.9965L45.6092 25.4426V25.4305L47.0933 24.4076L47.106 24.3834C46.489 23.9295 46.0417 23.4468 44.9552 23.4206C44.9468 24.2951 44.9384 25.1697 44.93 26.0444L45.408 25.587L47.2442 26.3213L44.8042 29.0295C44.3599 28.9578 43.998 28.639 43.4836 28.8369C43.5005 28.7725 43.5173 28.7083 43.5341 28.6443H39.3704C39.3979 32.9158 42.3461 35.9104 45.8097 36.9011C46.5529 37.1101 47.319 37.2355 48.0926 37.2745C48.0926 34.318 48.0864 31.2999 48.0864 28.3434C47.8976 27.6774 47.7089 27.0114 47.5203 26.3453C48.1464 25.9545 48.6977 25.4179 49.5201 25.2139C49.6701 25.3391 49.9769 26.467 50.0736 26.7305L50.2119 27.1758L49.6333 27.5128C49.2527 27.7423 48.4227 28.283 48.275 28.6924C48.275 31.5327 48.278 34.4343 48.278 37.2745C49.7616 37.2352 50.5979 37.1176 51.6206 36.8409C57.552 35.2367 61.1881 31.3719 62.4907 26.315C62.7376 25.2602 62.8045 24.3966 62.89 23.2881H60.991C61.163 22.6664 61.3542 22.0778 61.5261 21.456C61.8558 21.4869 61.5497 21.4278 62.8621 21.5978C62.8666 21.5396 62.8621 21.4508 62.8621 21.3496C62.3506 21.2855 62.0308 21.27 61.5193 21.2059C61.3386 20.7356 61.0862 20.2711 61.1294 19.581C61.7707 19.4647 62.2207 19.4798 62.8621 19.3636C62.8621 19.3098 62.8621 19.2405 62.8621 19.1864C62.2165 19.3071 61.7625 19.2803 61.1169 19.4007H61.1042C61.0749 18.9114 61.0454 18.4219 61.0159 17.9323C61.6949 17.8761 62.1827 17.8236 62.8617 17.7676C62.8617 17.714 62.8617 17.609 62.8617 17.5548C62.1825 17.611 61.7075 17.6956 61.0284 17.7518C60.9602 17.6643 60.9138 17.0648 60.9147 16.9092C61.6314 16.8451 62.1318 16.7661 62.8484 16.702C62.8484 16.6484 62.8484 16.5146 62.8484 16.4605C62.8118 16.4484 61.8131 16.6537 60.8267 16.7407L59.0029 15.2723L61.3549 15.1153C61.1573 14.4931 60.8233 13.9243 60.5626 13.3581C59.7074 11.5016 58.487 9.97385 57.2545 8.48333C56.6846 7.77232 56.0355 7.12266 55.3188 6.54579L54.627 5.9319C54.0304 5.47813 53.4441 5.00709 52.8158 4.58386C51.0619 3.4021 49.1229 2.5123 46.9547 1.70727C45.8201 1.28597 44.5683 1.06126 43.2821 0.792474C42.0094 0.526827 40.805 0.517046 39.1819 0.443389C39.1777 3.17135 39.1734 5.9802 39.1693 8.70816C41.697 10.1203 44.2255 11.4527 46.7533 12.8654C46.8206 13.0167 46.3259 14.1105 46.2754 14.394C43.7937 12.8856 41.3113 11.4569 38.8296 9.94849C38.884 9.57143 38.9385 9.19429 38.9931 8.81708V0.443389C37.9209 0.442061 37.0198 0.407165 36.0877 0.552063L34.2136 0.733186C32.855 0.963213 31.527 1.09857 30.2644 1.40636C27.7567 2.01747 25.4684 2.67422 23.309 3.57694C22.6334 3.8373 21.9741 4.13467 21.3344 4.46758L19.1459 5.6351L17.7372 6.48988C17.842 6.96322 17.9468 7.27656 18.0516 7.7499L17.6365 7.95457L16.7812 7.78552C16.6976 7.58025 15.9008 5.55082 15.9008 5.53476L16.9825 5.33021C17.2523 5.55964 17.384 6.09093 17.6617 6.30888L19.3215 5.31017L21.334 4.25096C22.8278 3.41924 24.5899 2.87189 26.2895 2.24098C28.0299 1.59485 29.9541 1.29479 31.9367 0.876515L33.8359 0.599638C34.8872 0.463313 33.9279 0.545422 34.8818 0.458966C22.3551 0.456068 12.7859 0.462951 0.259342 0.458966C0.259342 6.17038 0.360352 17.0053 0.360352 16.3193C1.11363 16.1476 1.32954 16.0382 1.826 15.9221C1.78989 16.3343 1.77171 17.4511 1.75024 17.8719C1.25416 18.019 0.874996 18.1932 0.376135 18.3217V18.5632C0.339266 18.6344 0.947596 18.3491 1.75024 18.0525L1.76287 18.0646C1.80302 18.213 1.77954 18.4532 1.826 18.6303V18.835C1.29785 18.9594 0.904289 19.1632 0.376513 19.2876C0.376513 19.1526 0.384215 19.6329 0.376513 19.4485C0.879541 19.3241 1.27297 19.1399 1.77575 19.0155L1.85151 19.0276C1.95688 19.3602 2.02021 19.7037 2.04014 20.0507C1.44065 20.1835 0.976258 20.4429 0.376766 20.5753C0.376766 20.3166 0.381438 20.9235 0.376766 20.7363C0.963632 20.6035 1.44065 20.3637 2.02752 20.2312H2.10327L2.44292 21.2785C1.70934 21.4509 1.11073 21.6905 0.377018 21.863C0.377018 21.5831 0.381943 22.1045 0.377018 22.024C1.0981 21.8549 1.70921 21.6274 2.43029 21.459H2.50605L2.75756 22.2292V22.2775C1.92259 22.4861 1.27424 22.6944 0.440023 22.9033C0.435856 22.9033 0.381311 22.9092 0.376892 22.9092V23.1507C0.435604 23.1507 0.474619 23.1501 0.545073 23.1507C1.45416 23.5483 2.20643 23.9574 2.68168 24.1671C1.87259 24.3155 1.00037 24.4509 0.191287 24.5993C0.191287 24.356 0.259468 30.8584 0.259468 37.4519C13.192 37.4519 26.0602 37.4654 38.9929 37.4654V14.5694C38.1394 14.6403 37.2961 14.7977 36.4773 15.0389C36.1042 15.1432 35.731 15.4078 35.3579 15.5121C34.8885 15.4359 34.4188 15.1994 33.9492 15.1232L33.6223 14.6176C33.6223 14.6136 33.5304 14.2401 33.5304 14.2362M4.84505 14.7795L2.02777 15.8868C2.00252 16.5247 1.97726 17.1626 1.95201 17.8005L5.20957 16.6933C5.1254 16.2399 5.04156 15.7865 4.95806 15.3332C4.92157 15.1675 4.94227 14.8971 4.8453 14.7789L4.84505 14.7795ZM7.32282 13.0463L5.05907 14.7066C5.1387 15.148 5.21837 15.5893 5.29808 16.0306C5.33596 16.2027 5.31071 16.4839 5.41172 16.6084L8.31713 15.3566L7.58759 13.6114C7.52585 13.4692 7.46145 13.1099 7.32307 13.0457L7.32282 13.0463ZM9.6372 11.9504L7.53683 12.9258L8.50526 15.2608L10.3416 14.2377C10.4729 14.1625 10.944 13.9733 10.983 13.8525L9.67508 11.9504H9.6372ZM11.4736 10.7347L9.86371 11.8421L11.134 13.7558C11.2823 13.7101 12.3795 12.7 12.505 12.5401L11.7754 11.2522C11.6804 11.0969 11.6225 10.8368 11.4736 10.7347ZM13.3854 8.73666C13.2121 9.2531 12.5407 9.95066 12.1276 10.2652L11.6748 10.6022L12.6936 12.4196C13.3589 12.0626 14.0604 11.6614 14.4922 11.0836L13.6872 9.33835C13.6157 9.16749 13.5513 8.81406 13.3854 8.73666ZM15.7373 5.71552L15.4607 6.2211C15.3266 6.47781 15.1924 6.7346 15.0581 6.99147L13.5363 8.53211L14.618 10.8912C14.7801 10.833 15.0584 10.3227 15.1714 10.169C15.7051 9.44649 16.1802 8.68601 16.5926 7.89419C16.5129 7.67757 15.7416 5.71552 15.7373 5.71552ZM18.0264 7.95432C17.7399 8.27733 17.1822 7.98536 16.731 7.97848L16.4668 8.496C16.1264 9.1156 15.7397 9.71095 15.3098 10.2774C15.1456 10.4997 14.8471 10.7718 14.7689 11.0477L16.1902 11.3606C16.3435 11.4022 16.5757 11.5408 16.7687 11.4572L17.8882 9.89258L17.9639 8.83338C17.9927 8.65998 18.0872 8.10466 18.0264 7.95432ZM19.7999 20.1828L17.0077 18.4857C16.3663 19.2158 15.7249 19.946 15.0834 20.6763C14.9167 20.8777 14.4003 21.3235 14.3287 21.5429L17.5231 22.4335L19.825 20.2311C19.8167 20.2152 19.8082 20.1992 19.7999 20.1828ZM19.9885 20.3156L17.7245 22.5062L19.3596 23.1923L23.2335 24.8052L25.0572 22.9275C24.9891 22.7801 24.2321 22.3207 24.051 22.1933L23.0575 21.4711L19.9885 20.3156ZM27.2451 21.5284C27.2178 21.3915 27.0454 20.922 26.9313 20.8573L25.5981 20.4364L24.9943 20.4967C24.3525 20.6 23.5904 20.5927 22.9317 20.6893L21.5985 20.7256L21.6111 20.7497L23.133 21.3154C23.2504 21.4077 23.5244 21.5971 23.6416 21.6897M25.9881 9.02754C26.0678 9.34849 26.1475 9.69927 26.2271 10.0202L26.5793 10.285L27.1829 10.7303C27.6559 10.9825 28.1641 11.1688 28.6922 11.2836L29.56 11.3561L32.9438 12.4995L36.4655 12.981C37.4422 13.2457 38.5867 13.5106 39.5637 13.7754L39.4501 13.6546C39.1064 13.2855 38.5949 12.676 38.2506 12.3068C37.6679 12.0902 37.0795 11.8869 36.5023 11.657C36.0074 11.4598 35.3921 11.2015 34.6198 10.8705M34.6198 10.8705C34.1585 10.6339 33.4166 10.2809 32.9555 10.0441L32.2386 9.65894L30.6161 9.23764C29.4113 8.87697 28.118 8.50385 26.5662 8.50337C26.3768 8.68027 26.3734 8.68063 25.9876 9.0273M27.5095 7.43209L28.1006 7.92559C29.2706 8.82287 30.704 8.91464 32.2009 9.4783C32.2889 8.9247 32.3769 8.37103 32.465 7.81728L27.5476 6.39727C27.5331 6.60955 27.3908 7.22814 27.5098 7.43233L27.5095 7.43209ZM28.3648 5.79522C28.1437 5.93855 27.7082 5.97634 27.6227 6.24054L32.478 7.64907L32.5033 7.637C32.5159 7.296 32.5285 6.95497 32.5411 6.61389L28.3648 5.79522ZM32.4272 9.58673L34.3642 10.5617C35.1583 11.0042 36.0838 11.2875 36.9678 11.6449L38.2758 12.1503L38.5273 10.5254C38.5517 10.4058 38.6296 10.0796 38.5526 10.0199L32.6666 7.9018C32.5916 8.15622 32.3265 9.38532 32.4275 9.58685L32.4272 9.58673ZM38.8035 8.52752L36.5154 7.75775L32.7421 6.67451L32.6916 7.72164L38.6408 9.8636C38.6994 9.65906 38.8494 8.7049 38.8037 8.52764L38.8035 8.52752ZM46.0985 14.5136C43.6586 13.0334 41.2181 11.6327 38.7783 10.1524C38.6986 10.6498 38.619 11.1473 38.5395 11.6449C38.5045 11.8066 38.3934 12.0692 38.4637 12.2588L38.8795 12.6921C39.0992 12.9533 39.4934 13.4319 39.7388 13.6667C40.3498 14.2513 40.9139 14.4209 41.6088 14.9225L43.5335 16.3671L46.1245 14.5496L46.0985 14.5136ZM43.697 16.4637C43.759 16.644 44.2264 16.9646 44.3888 17.0896C45.0075 17.5657 45.523 18.1619 46.1748 18.6062L49.4071 15.9943L49.3945 15.9701L46.3137 14.6341L43.697 16.4637ZM46.4389 14.4778L48.6652 15.4527C48.8721 15.54 49.3344 15.827 49.533 15.8258L50.0486 13.7195L46.9678 12.9732C46.7913 13.4747 46.615 13.9763 46.4389 14.4778ZM46.7659 12.6603V12.612C46.6275 12.0222 46.4892 11.4325 46.3509 10.8426L41.6469 9.80758L46.7659 12.6603ZM0 0.210948H63.1218V37.7172H0.00580805L0 0.210948Z" fill="black"/>
</svg>
